<svg xmlns="http://www.w3.org/2000/svg" version="1.1" xmlns:xlink="http://www.w3.org/1999/xlink" xmlns:svgjs="http://svgjs.dev/svgjs" width="2000" height="1500" viewBox="0 0 2000 1500"><rect width="2000" height="1500" fill="#13193f"></rect><g transform="matrix(0.75,0,0,0.75,249.09090909090878,492.7966926981611)"><svg viewBox="0 0 396 136" data-background-color="#13193f" preserveAspectRatio="xMidYMid meet" height="686" width="2000" xmlns="http://www.w3.org/2000/svg" xmlns:xlink="http://www.w3.org/1999/xlink"><g id="tight-bounds" transform="matrix(1,0,0,1,0.24000000000006594,-0.012342481924008553)"><svg viewBox="0 0 395.51999999999987 136.02468496384802" height="136.02468496384802" width="395.51999999999987"><g><svg viewBox="0 0 623.6698788908416 214.48851839999998" height="136.02468496384802" width="395.51999999999987"><g transform="matrix(1,0,0,1,228.1498788908416,59.68372117166909)"><svg viewBox="0 0 395.52 95.12107605666179" height="95.12107605666179" width="395.52"><g id="textblocktransform"><svg viewBox="0 0 395.52 95.12107605666179" height="95.12107605666179" width="395.52" id="textblock"><g><svg viewBox="0 0 395.52 57.868485110056106" height="57.868485110056106" width="395.52"><g transform="matrix(1,0,0,1,0,0)"><svg width="395.52" viewBox="1.83 -32.74 226.25 33.11" height="57.868485110056106" data-palette-color="#ffffff"><path d="M13.16 0.37Q7.45 0.37 4.64-2.7 1.83-5.76 1.83-11.21L1.83-11.21Q1.83-17.33 4.64-20.19 7.45-23.05 12.38-23.05L12.38-23.05Q15.65-23.05 17.74-21.56 19.82-20.07 20.79-17.55 21.75-15.04 21.75-11.87L21.75-11.87Q21.75-11.5 21.33-10.89 20.9-10.28 20.36-9.79 19.82-9.3 19.53-9.3L19.53-9.3 8.47-9.3Q8.69-6.81 9.95-5.77 11.21-4.74 13.45-4.74L13.45-4.74Q14.67-4.74 15.66-5.02 16.65-5.3 17.77-5.76L17.77-5.76Q18.46-6.08 18.7-6.08L18.7-6.08Q19.14-6.08 19.67-5.46 20.19-4.83 20.57-4.03 20.95-3.22 20.95-2.78L20.95-2.78Q20.95-1.78 19.59-1.07 18.24-0.37 16.39 0 14.55 0.37 13.16 0.37L13.16 0.37ZM8.47-13.57L15.5-13.57Q15.5-15.58 14.72-16.78 13.94-17.99 12.38-17.99L12.38-17.99Q9.16-17.99 8.47-13.57L8.47-13.57ZM32.49 0.37Q29.39 0.37 27.77-1.38 26.14-3.13 26.14-6.69L26.14-6.69 26.14-31.32Q26.14-32.74 28.76-32.74L28.76-32.74 29.98-32.74Q31.32-32.74 31.94-32.39 32.57-32.03 32.57-31.32L32.57-31.32 32.57-6.62Q32.57-5.62 32.93-5.18 33.3-4.74 34.15-4.74L34.15-4.74Q34.37-4.74 34.81-4.83L34.81-4.83Q34.93-4.86 35.06-4.88 35.18-4.91 35.32-4.91L35.32-4.91Q35.69-4.91 36-4.26 36.3-3.61 36.47-2.82 36.64-2.03 36.64-1.78L36.64-1.78Q36.64 0.37 32.49 0.37L32.49 0.37ZM49.48 0.37Q43.77 0.37 40.96-2.7 38.15-5.76 38.15-11.21L38.15-11.21Q38.15-17.33 40.96-20.19 43.77-23.05 48.7-23.05L48.7-23.05Q51.97-23.05 54.06-21.56 56.15-20.07 57.11-17.55 58.08-15.04 58.08-11.87L58.08-11.87Q58.08-11.5 57.65-10.89 57.22-10.28 56.68-9.79 56.15-9.3 55.85-9.3L55.85-9.3 44.79-9.3Q45.01-6.81 46.27-5.77 47.53-4.74 49.78-4.74L49.78-4.74Q51-4.74 51.98-5.02 52.97-5.3 54.1-5.76L54.1-5.76Q54.78-6.08 55.02-6.08L55.02-6.08Q55.46-6.08 55.99-5.46 56.51-4.83 56.89-4.03 57.27-3.22 57.27-2.78L57.27-2.78Q57.27-1.78 55.92-1.07 54.56-0.37 52.72 0 50.87 0.37 49.48 0.37L49.48 0.37ZM44.79-13.57L51.83-13.57Q51.83-15.58 51.04-16.78 50.26-17.99 48.7-17.99L48.7-17.99Q45.48-17.99 44.79-13.57L44.79-13.57ZM72.48 0.37Q66.94 0.37 64.25-2.5 61.56-5.37 61.56-11.21L61.56-11.21Q61.56-17.09 64.27-20.07 66.98-23.05 72.72-23.05L72.72-23.05Q74.36-23.05 76.03-22.69 77.7-22.34 78.81-21.67 79.92-21 79.92-20.04L79.92-20.04Q79.92-19.65 79.5-18.82 79.07-17.99 78.52-17.35 77.97-16.7 77.6-16.7L77.6-16.7Q77.43-16.7 76.85-17.04L76.85-17.04Q75.92-17.48 75.09-17.74 74.26-17.99 73.06-17.99L73.06-17.99Q70.5-17.99 69.33-16.37 68.16-14.75 68.16-11.38L68.16-11.38Q68.16-7.98 69.27-6.36 70.38-4.74 72.82-4.74L72.82-4.74Q74.16-4.74 75.16-5.02 76.16-5.3 77.07-5.74L77.07-5.74Q77.24-5.81 77.48-5.91 77.73-6.01 77.85-6.01L77.85-6.01Q78.29-6.01 78.81-5.38 79.34-4.76 79.72-3.96 80.1-3.15 80.1-2.71L80.1-2.71Q80.1-1.59 78.63-0.9 77.17-0.22 75.36 0.07 73.55 0.37 72.48 0.37L72.48 0.37ZM90.47 0.37Q87.37 0.37 85.74-1.38 84.12-3.13 84.12-6.69L84.12-6.69 84.12-17.63 83.44-17.63Q82.75-17.63 82.45-18.14 82.14-18.65 82.14-19.8L82.14-19.8 82.14-20.53Q82.14-21.68 82.45-22.19 82.75-22.71 83.44-22.71L83.44-22.71 84.12-22.71 84.68-26.83Q84.88-28.2 87.03-28.2L87.03-28.2 88.39-28.2Q89.52-28.2 90.04-27.86 90.57-27.51 90.57-26.83L90.57-26.83 90.57-22.71 92.69-22.71Q93.37-22.71 93.68-22.19 93.98-21.68 93.98-20.53L93.98-20.53 93.98-19.8Q93.98-18.65 93.68-18.14 93.37-17.63 92.69-17.63L92.69-17.63 90.57-17.63 90.57-6.62Q90.57-5.62 90.92-5.18 91.27-4.74 92.1-4.74L92.1-4.74Q92.35-4.74 92.76-4.82 93.18-4.91 93.28-4.91L93.28-4.91Q93.67-4.91 93.97-4.26 94.28-3.61 94.46-2.83 94.64-2.05 94.64-1.78L94.64-1.78Q94.64 0.37 90.47 0.37L90.47 0.37ZM100.94 0.07Q98.35 0.07 98.35-1.29L98.35-1.29 98.35-15.06Q98.35-18.19 97.94-20.26L97.94-20.26Q97.81-20.92 97.81-21.19L97.81-21.19Q97.81-21.68 98.73-21.98 99.65-22.29 100.81-22.44 101.97-22.58 102.67-22.58L102.67-22.58Q103.43-22.58 103.74-22.02 104.04-21.46 104.28-20.39L104.28-20.39 104.43-19.75Q105.26-21.26 106.35-22.16 107.43-23.05 109.14-23.05L109.14-23.05Q110.56-23.05 111.1-22.33 111.63-21.61 111.63-20.7L111.63-20.7Q111.63-20.21 111.46-19.32 111.29-18.43 110.97-17.75 110.66-17.07 110.27-17.07L110.27-17.07Q110-17.07 109.46-17.21L109.46-17.21Q108.73-17.41 108.22-17.41L108.22-17.41Q107.02-17.41 106.13-16.74 105.24-16.06 104.77-15.23L104.77-15.23 104.77-1.29Q104.77 0.07 102.14 0.07L102.14 0.07 100.94 0.07ZM123.89 0.37Q118.74 0.37 116.04-2.66 113.34-5.69 113.34-11.38L113.34-11.38Q113.34-17.04 116.04-20.04 118.74-23.05 123.89-23.05L123.89-23.05Q129.04-23.05 131.71-20.06 134.38-17.07 134.38-11.38L134.38-11.38Q134.38-5.69 131.71-2.66 129.04 0.37 123.89 0.37L123.89 0.37ZM123.89-4.74Q125.94-4.74 126.9-6.4 127.87-8.06 127.87-11.38L127.87-11.38Q127.87-14.67 126.9-16.33 125.94-17.99 123.89-17.99L123.89-17.99Q119.83-17.99 119.83-11.38L119.83-11.38Q119.83-8.08 120.82-6.41 121.81-4.74 123.89-4.74L123.89-4.74ZM138.65 0Q138.39 0 138.09-0.57 137.8-1.15 137.59-1.94 137.38-2.73 137.38-3.3L137.38-3.3Q137.38-3.71 137.51-3.91L137.51-3.91 147.47-17.63 139.39-17.63Q138.7-17.63 138.4-18.14 138.09-18.65 138.09-19.8L138.09-19.8 138.09-20.53Q138.09-21.68 138.4-22.19 138.7-22.71 139.39-22.71L139.39-22.71 154.74-22.71Q154.96-22.71 155.27-22.13 155.57-21.56 155.79-20.75 156.01-19.95 156.01-19.36L156.01-19.36Q156.01-18.9 155.87-18.7L155.87-18.7 146-5.08 154.87-5.08Q155.55-5.08 155.87-4.57 156.18-4.05 156.18-2.91L156.18-2.91 156.18-2.17Q156.18-1.03 155.87-0.51 155.55 0 154.87 0L154.87 0 138.65 0ZM169.83 0.37Q164.68 0.37 161.98-2.66 159.28-5.69 159.28-11.38L159.28-11.38Q159.28-17.04 161.98-20.04 164.68-23.05 169.83-23.05L169.83-23.05Q174.98-23.05 177.65-20.06 180.33-17.07 180.33-11.38L180.33-11.38Q180.33-5.69 177.65-2.66 174.98 0.37 169.83 0.37L169.83 0.37ZM169.83-4.74Q171.88-4.74 172.84-6.4 173.81-8.06 173.81-11.38L173.81-11.38Q173.81-14.67 172.84-16.33 171.88-17.99 169.83-17.99L169.83-17.99Q165.78-17.99 165.78-11.38L165.78-11.38Q165.78-8.08 166.76-6.41 167.75-4.74 169.83-4.74L169.83-4.74ZM187.45 0.07Q184.87 0.07 184.87-1.29L184.87-1.29 184.87-15.06Q184.87-18.19 184.45-20.26L184.45-20.26Q184.33-20.92 184.33-21.19L184.33-21.19Q184.33-21.68 185.24-21.98 186.16-22.29 187.32-22.44 188.48-22.58 189.19-22.58L189.19-22.58Q189.94-22.58 190.25-22.02 190.55-21.46 190.8-20.39L190.8-20.39 190.94-19.75Q191.97-21.12 193.69-22.08 195.41-23.05 197.39-23.05L197.39-23.05Q200.66-23.05 202.22-21.34 203.79-19.63 203.79-16.04L203.79-16.04 203.79-1.29Q203.79 0.07 201.15 0.07L201.15 0.07 199.95 0.07Q197.37 0.07 197.37-1.29L197.37-1.29 197.37-15.06Q197.37-16.38 196.74-17.07 196.12-17.75 194.73-17.75L194.73-17.75Q193.56-17.75 192.65-16.97 191.75-16.19 191.29-15.23L191.29-15.23 191.29-1.29Q191.29 0.07 188.65 0.07L188.65 0.07 187.45 0.07ZM219.48 0.37Q213.77 0.37 210.96-2.7 208.15-5.76 208.15-11.21L208.15-11.21Q208.15-17.33 210.96-20.19 213.77-23.05 218.7-23.05L218.7-23.05Q221.97-23.05 224.06-21.56 226.15-20.07 227.11-17.55 228.08-15.04 228.08-11.87L228.08-11.87Q228.08-11.5 227.65-10.89 227.22-10.28 226.68-9.79 226.15-9.3 225.85-9.3L225.85-9.3 214.79-9.3Q215.01-6.81 216.27-5.77 217.53-4.74 219.77-4.74L219.77-4.74Q221-4.74 221.98-5.02 222.97-5.3 224.1-5.76L224.1-5.76Q224.78-6.08 225.02-6.08L225.02-6.08Q225.46-6.08 225.99-5.46 226.51-4.83 226.89-4.03 227.27-3.22 227.27-2.78L227.27-2.78Q227.27-1.78 225.91-1.07 224.56-0.37 222.72 0 220.87 0.37 219.48 0.37L219.48 0.37ZM214.79-13.57L221.83-13.57Q221.83-15.58 221.04-16.78 220.26-17.99 218.7-17.99L218.7-17.99Q215.48-17.99 214.79-13.57L214.79-13.57Z" opacity="1" transform="matrix(1,0,0,1,0,0)" fill="#ffffff" class="wordmark-text-0" data-fill-palette-color="primary" id="text-0"></path></svg></g></svg></g><g transform="matrix(1,0,0,1,163.310208,71.52984560089772)"><svg viewBox="0 0 232.209792 23.591230455764073" height="23.591230455764073" width="232.209792"><g transform="matrix(1,0,0,1,0,0)"><svg width="232.209792" viewBox="2.05 -35.5 354.3 36" height="23.591230455764073" data-palette-color="#ffffff"><path d="M2.05 0L2.05-35 17.05-35 17.05-30 7.55-30 7.55-20.75 15.1-20.75 15.1-15.75 7.55-15.75 7.55-5 17.05-5 17.05 0 2.05 0ZM20.2 0L20.2-35 25.7-35 25.7-5 34.75-5 34.75 0 20.2 0ZM37.39 0L37.39-35 52.39-35 52.39-30 42.89-30 42.89-20.75 50.45-20.75 50.45-15.75 42.89-15.75 42.89-5 52.39-5 52.39 0 37.39 0ZM63.29 0.5Q59.34 0.5 57.27-1.75 55.19-4 55.19-8.1L55.19-8.1 55.19-26.9Q55.19-31 57.27-33.25 59.34-35.5 63.29-35.5L63.29-35.5Q67.24-35.5 69.32-33.25 71.39-31 71.39-26.9L71.39-26.9 71.39-23.2 66.19-23.2 66.19-27.25Q66.19-30.5 63.44-30.5L63.44-30.5Q60.69-30.5 60.69-27.25L60.69-27.25 60.69-7.7Q60.69-4.5 63.44-4.5L63.44-4.5Q66.19-4.5 66.19-7.7L66.19-7.7 66.19-13.05 71.39-13.05 71.39-8.1Q71.39-4 69.32-1.75 67.24 0.5 63.29 0.5L63.29 0.5ZM78.99 0L78.99-30 73.24-30 73.24-35 90.24-35 90.24-30 84.49-30 84.49 0 78.99 0ZM92.89 0L92.89-35 101.04-35Q105.29-35 107.24-33.02 109.19-31.05 109.19-26.95L109.19-26.95 109.19-24.8Q109.19-19.35 105.59-17.9L105.59-17.9 105.59-17.8Q107.59-17.2 108.41-15.35 109.24-13.5 109.24-10.4L109.24-10.4 109.24-4.25Q109.24-2.75 109.34-1.83 109.44-0.9 109.84 0L109.84 0 104.24 0Q103.94-0.85 103.84-1.6 103.74-2.35 103.74-4.3L103.74-4.3 103.74-10.7Q103.74-13.1 102.96-14.05 102.19-15 100.29-15L100.29-15 98.39-15 98.39 0 92.89 0ZM98.39-20L100.39-20Q102.04-20 102.86-20.85 103.69-21.7 103.69-23.7L103.69-23.7 103.69-26.4Q103.69-28.3 103.01-29.15 102.34-30 100.89-30L100.89-30 98.39-30 98.39-20ZM113.04 0L113.04-35 118.54-35 118.54 0 113.04 0ZM122.63 0L122.63-35 137.18-35 137.18-30 128.13-30 128.13-20.25 135.23-20.25 135.23-15.25 128.13-15.25 128.13 0 122.63 0ZM144.88 0L144.88-14.9 138.23-35 144.08-35 147.83-22.15 147.93-22.15 151.68-35 157.03-35 150.38-14.9 150.38 0 144.88 0ZM172.58 0L172.58-14.9 165.93-35 171.78-35 175.53-22.15 175.63-22.15 179.38-35 184.73-35 178.08-14.9 178.08 0 172.58 0ZM194.27 0.5Q190.22 0.5 188.07-1.8 185.92-4.1 185.92-8.3L185.92-8.3 185.92-26.7Q185.92-30.9 188.07-33.2 190.22-35.5 194.27-35.5L194.27-35.5Q198.32-35.5 200.47-33.2 202.62-30.9 202.62-26.7L202.62-26.7 202.62-8.3Q202.62-4.1 200.47-1.8 198.32 0.5 194.27 0.5L194.27 0.5ZM194.27-4.5Q197.12-4.5 197.12-7.95L197.12-7.95 197.12-27.05Q197.12-30.5 194.27-30.5L194.27-30.5Q191.42-30.5 191.42-27.05L191.42-27.05 191.42-7.95Q191.42-4.5 194.27-4.5L194.27-4.5ZM214.32 0.5Q210.32 0.5 208.22-1.78 206.12-4.05 206.12-8.3L206.12-8.3 206.12-35 211.62-35 211.62-7.9Q211.62-6.1 212.34-5.3 213.07-4.5 214.42-4.5L214.42-4.5Q215.77-4.5 216.5-5.3 217.22-6.1 217.22-7.9L217.22-7.9 217.22-35 222.52-35 222.52-8.3Q222.52-4.05 220.42-1.78 218.32 0.5 214.32 0.5L214.32 0.5ZM226.42 0L226.42-35 234.57-35Q238.82-35 240.77-33.02 242.72-31.05 242.72-26.95L242.72-26.95 242.72-24.8Q242.72-19.35 239.12-17.9L239.12-17.9 239.12-17.8Q241.12-17.2 241.94-15.35 242.77-13.5 242.77-10.4L242.77-10.4 242.77-4.25Q242.77-2.75 242.87-1.83 242.97-0.9 243.37 0L243.37 0 237.77 0Q237.47-0.85 237.37-1.6 237.27-2.35 237.27-4.3L237.27-4.3 237.27-10.7Q237.27-13.1 236.49-14.05 235.72-15 233.82-15L233.82-15 231.92-15 231.92 0 226.42 0ZM231.92-20L233.92-20Q235.57-20 236.39-20.85 237.22-21.7 237.22-23.7L237.22-23.7 237.22-26.4Q237.22-28.3 236.54-29.15 235.87-30 234.42-30L234.42-30 231.92-30 231.92-20ZM256.81 0L253.26-35 258.56-35 261.01-8.1 261.11-8.1 263.71-35 269.71-35 272.31-8.1 272.41-8.1 274.86-35 279.61-35 276.06 0 269.21 0 266.71-23.6 266.61-23.6 264.11 0 256.81 0ZM290.36 0.5Q286.31 0.5 284.16-1.8 282.01-4.1 282.01-8.3L282.01-8.3 282.01-26.7Q282.01-30.9 284.16-33.2 286.31-35.5 290.36-35.5L290.36-35.5Q294.41-35.5 296.56-33.2 298.71-30.9 298.71-26.7L298.71-26.7 298.71-8.3Q298.71-4.1 296.56-1.8 294.41 0.5 290.36 0.5L290.36 0.5ZM290.36-4.5Q293.21-4.5 293.21-7.95L293.21-7.95 293.21-27.05Q293.21-30.5 290.36-30.5L290.36-30.5Q287.51-30.5 287.51-27.05L287.51-27.05 287.51-7.95Q287.51-4.5 290.36-4.5L290.36-4.5ZM302.41 0L302.41-35 310.56-35Q314.81-35 316.76-33.02 318.71-31.05 318.71-26.95L318.71-26.95 318.71-24.8Q318.71-19.35 315.11-17.9L315.11-17.9 315.11-17.8Q317.11-17.2 317.93-15.35 318.76-13.5 318.76-10.4L318.76-10.4 318.76-4.25Q318.76-2.75 318.86-1.83 318.96-0.9 319.36 0L319.36 0 313.76 0Q313.46-0.85 313.36-1.6 313.26-2.35 313.26-4.3L313.26-4.3 313.26-10.7Q313.26-13.1 312.48-14.05 311.71-15 309.81-15L309.81-15 307.91-15 307.91 0 302.41 0ZM307.91-20L309.91-20Q311.56-20 312.38-20.85 313.21-21.7 313.21-23.7L313.21-23.7 313.21-26.4Q313.21-28.3 312.53-29.15 311.86-30 310.41-30L310.41-30 307.91-30 307.91-20ZM322.56 0L322.56-35 328.06-35 328.06-5 337.11-5 337.11 0 322.56 0ZM339.75 0L339.75-35 348.15-35Q352.25-35 354.3-32.8 356.35-30.6 356.35-26.35L356.35-26.35 356.35-8.65Q356.35-4.4 354.3-2.2 352.25 0 348.15 0L348.15 0 339.75 0ZM345.25-5L348.05-5Q349.4-5 350.13-5.8 350.85-6.6 350.85-8.4L350.85-8.4 350.85-26.6Q350.85-28.4 350.13-29.2 349.4-30 348.05-30L348.05-30 345.25-30 345.25-5Z" opacity="1" transform="matrix(1,0,0,1,0,0)" fill="#ffffff" class="slogan-text-1" data-fill-palette-color="secondary" id="text-1"></path></svg></g></svg></g></svg></g></svg></g><g><svg viewBox="0 0 214.48851839999998 214.48851839999998" height="214.48851839999998" width="214.48851839999998"><g><svg></svg></g><g id="icon-0"><svg viewBox="0 0 214.48851839999998 214.48851839999998" height="214.48851839999998" width="214.48851839999998"><g><rect width="195.02567136" height="195.02567136" x="9.731423519999993" y="9.731423519999993" fill="#a34393" data-fill-palette-color="accent"></rect><rect width="195.02567136" height="195.02567136" x="19.462847039999993" y="-5.329070518200751e-15" fill="#a34393" opacity="0.5" data-fill-palette-color="accent"></rect></g><g transform="matrix(1,0,0,1,27.80406719999999,27.80439808734799)"><svg viewBox="0 0 158.880384 158.879722225304" height="158.879722225304" width="158.880384"><g><svg xmlns="http://www.w3.org/2000/svg" xmlns:xlink="http://www.w3.org/1999/xlink" version="1.0" x="0" y="0" viewBox="4.667731951646829 4.685959745359883 90.30503348557724 90.30465734357294" enable-background="new 0 0 100 100" xml:space="preserve" height="158.879722225304" width="158.880384" class="icon-z$-0" data-fill-palette-color="background" id="z$-0"><path d="M17.504 35.743c-1.334 8.611 0.522 17.134 5.093 23.382 3.514 4.801 8.413 7.905 13.796 8.739 5.677 0.88 11.253-0.429 15.703-3.685 1.248-0.912 2.36-1.946 3.326-3.076-2.222 0.978-4.814 1.267-7.626 0.831-11.717-1.816-19.673-13.464-17.735-25.964 0.934-6.03 4.384-11.497 9.713-15.397 6.768-4.952 15.953-6.97 25.201-5.537 7.474 1.158 17.67 5.964 25.56 15.213 0 0-22.835-39.421-56.115-20.356C23.689 16.04 18.653 28.323 17.504 35.743z" fill="#13193f" data-fill-palette-color="background"></path><path d="M82.544 65.256c1.659-8.555 0.125-17.141-4.207-23.557-3.331-4.931-8.109-8.217-13.457-9.253-5.639-1.094-11.261 0.004-15.83 3.091-1.282 0.863-2.431 1.854-3.44 2.947 2.257-0.894 4.859-1.084 7.652-0.543 11.64 2.257 19.151 14.196 16.744 26.616-1.161 5.989-4.815 11.324-10.288 15.019-6.949 4.692-16.205 6.364-25.393 4.582C26.902 82.719 16.894 77.532 9.358 67.992c0 0 21.331 40.255 55.307 22.457C75.621 84.712 81.115 72.628 82.544 65.256z" fill="#13193f" data-fill-palette-color="background"></path><path d="M35.726 82.88c8.611 1.334 17.133-0.522 23.381-5.094 4.801-3.514 7.905-8.413 8.74-13.796 0.879-5.676-0.429-11.253-3.686-15.702-0.912-1.248-1.946-2.36-3.076-3.327 0.979 2.222 1.267 4.815 0.831 7.626-1.816 11.717-13.463 19.673-25.965 17.736-6.029-0.934-11.497-4.385-15.395-9.713-4.952-6.768-6.971-15.954-5.538-25.202 1.158-7.474 5.964-17.67 15.213-25.559 0 0-39.421 22.835-20.356 56.115C16.022 76.695 28.305 81.73 35.726 82.88z" fill="#13193f" data-fill-palette-color="background"></path><path d="M90.432 35.718c-5.738-10.955-17.822-16.45-25.194-17.879-8.554-1.659-17.141-0.125-23.557 4.208-4.931 3.331-8.217 8.108-9.254 13.456-1.094 5.64 0.004 11.261 3.092 15.83 0.863 1.282 1.854 2.431 2.946 3.441-0.894-2.257-1.084-4.859-0.542-7.652 2.257-11.64 14.196-19.151 26.615-16.744 5.99 1.161 11.324 4.816 15.019 10.289 4.693 6.949 6.363 16.204 4.583 25.392-1.44 7.423-6.626 17.431-16.167 24.966C67.973 91.025 108.228 69.694 90.432 35.718z" fill="#13193f" data-fill-palette-color="background"></path></svg></g></svg></g></svg></g></svg></g></svg></g><defs></defs></svg><rect width="395.51999999999987" height="136.02468496384802" fill="none" stroke="none" visibility="hidden"></rect></g></svg></g></svg>