<svg version="1.1" id="Layer_1" xmlns="http://www.w3.org/2000/svg" xmlns:xlink="http://www.w3.org/1999/xlink" x="0px" y="0px"
	 width="100%" viewBox="0 0 1120 250" enable-background="new 0 0 1120 250" xml:space="preserve">
<path fill="#141A3F" opacity="1.000000" stroke="none" 
	d="
M1067.000000,251.000000 
	C711.333313,251.000000 356.166656,251.000000 1.000000,251.000000 
	C1.000000,167.666672 1.000000,84.333336 1.000000,1.000000 
	C374.333344,1.000000 747.666687,1.000000 1121.000000,1.000000 
	C1121.000000,84.333336 1121.000000,167.666672 1121.000000,251.000000 
	C1103.166626,251.000000 1085.333374,251.000000 1067.000000,251.000000 
M847.569763,202.106842 
	C859.859680,197.885513 868.303467,189.429321 872.766602,177.493210 
	C879.580078,159.271378 879.672302,140.612915 873.615295,122.193581 
	C868.737061,107.358849 858.364624,97.383934 843.003052,94.384232 
	C834.174988,92.660347 824.681152,92.245880 815.778931,93.432297 
	C796.383667,96.017166 784.090942,107.663445 778.950439,126.600685 
	C775.168274,140.534119 775.104919,154.639328 778.331848,168.616608 
	C782.473572,186.556351 792.851685,199.145950 811.329773,203.526108 
	C823.167480,206.332230 835.102173,206.162628 847.569763,202.106842 
M558.514343,174.889771 
	C563.831848,189.989944 573.996887,200.367294 589.774048,203.346436 
	C598.755615,205.042404 608.383606,205.195435 617.470764,204.054306 
	C635.563965,201.782242 647.074219,190.707367 652.536255,173.504562 
	C654.083435,168.631668 654.945801,163.469849 655.515686,158.372726 
	C656.784058,147.028412 656.114014,135.736832 652.892456,124.738548 
	C646.863831,104.156227 631.807251,93.563652 607.287964,92.417206 
	C580.385803,91.159340 561.615112,104.831215 556.387817,130.226166 
	C553.366394,144.904984 553.758606,159.676636 558.514343,174.889771 
M22.076626,178.319992 
	C28.424675,191.909912 38.945114,200.311920 53.586712,203.473526 
	C68.426483,206.677902 83.070969,205.799454 97.316063,200.561371 
	C110.324173,195.778152 111.869667,190.122528 103.865608,178.851318 
	C101.099388,174.955994 98.332428,173.439850 93.395058,175.701340 
	C84.861130,179.610138 75.903519,181.909775 66.263412,180.169846 
	C55.215168,178.175720 49.037426,170.877060 49.109188,158.821854 
	C50.731819,158.821854 52.360680,158.821854 53.989540,158.821854 
	C67.815033,158.821838 81.640518,158.821869 95.466011,158.821838 
	C107.394226,158.821808 113.585403,151.912018 112.384239,139.841461 
	C112.022194,136.203369 111.703705,132.531433 110.933060,128.968491 
	C107.057961,111.052597 97.949249,97.464043 78.879501,93.678978 
	C71.995705,92.312637 64.557800,92.332596 57.561718,93.216194 
	C40.517365,95.368843 27.233252,103.763458 21.327864,120.479759 
	C14.646911,139.391464 14.477753,158.626648 22.076626,178.319992 
M1039.413818,96.822746 
	C1027.867676,101.716270 1019.937378,110.096786 1016.083496,121.986565 
	C1010.653442,138.739059 1010.162415,155.783585 1015.336670,172.622543 
	C1019.680054,186.758118 1028.739746,197.141159 1043.131714,201.803986 
	C1059.695312,207.170486 1076.332397,206.474274 1092.630737,200.569885 
	C1105.906128,195.760620 1107.453613,189.320572 1098.668335,178.076431 
	C1096.086670,174.772232 1093.595215,173.974884 1089.250244,175.445297 
	C1082.092041,177.867783 1074.554443,180.269318 1067.107788,180.505066 
	C1052.538696,180.966324 1045.104736,173.370956 1044.259644,158.821396 
	C1045.917969,158.821396 1047.551758,158.821396 1049.185547,158.821396 
	C1063.350830,158.821396 1077.516113,158.821655 1091.681396,158.821304 
	C1101.832886,158.821045 1108.816284,152.149475 1107.817505,142.022354 
	C1107.009766,133.832062 1105.578979,125.443512 1102.732056,117.770905 
	C1097.618530,103.989510 1087.165283,95.549309 1072.498169,93.170090 
	C1061.483765,91.383347 1050.586792,92.320625 1039.413818,96.822746 
M238.403168,179.490021 
	C228.751068,176.062027 224.025299,169.229584 224.386368,158.821625 
	C240.669144,158.821625 256.972595,159.016449 273.263489,158.650269 
	C276.363373,158.580582 279.852081,156.860138 282.389435,154.901382 
	C286.829681,151.473648 288.903717,146.646606 287.870392,140.784378 
	C287.033661,136.037537 286.784119,131.158951 285.616760,126.503662 
	C281.325897,109.391975 271.748993,96.900337 253.591751,93.526497 
	C246.838699,92.271690 239.579163,92.305054 232.743591,93.209610 
	C214.417831,95.634712 201.078369,105.147377 195.479874,123.322113 
	C190.628448,139.071701 190.218994,155.156311 194.773544,171.102661 
	C199.777267,188.621750 211.214951,199.678787 229.123337,203.549759 
	C243.778259,206.717484 258.293365,205.771393 272.395081,200.638824 
	C285.747833,195.778839 287.320221,189.590942 278.588165,178.183075 
	C276.047241,174.863510 273.505432,173.575729 269.243256,175.498596 
	C259.699310,179.804382 249.758453,182.314774 238.403168,179.490021 
M967.313721,203.565445 
	C972.790710,203.535995 978.322266,203.977600 983.730042,203.350937 
	C989.709473,202.658020 990.945862,200.705292 990.949402,194.689972 
	C990.962708,171.867508 990.999268,149.044861 990.906006,126.222763 
	C990.890442,122.411743 990.534180,118.558220 989.886108,114.801842 
	C987.866333,103.094261 980.967041,95.643913 969.792847,93.338638 
	C957.777954,90.859924 946.611877,92.932899 936.807556,100.636642 
	C934.158447,102.718109 931.731262,105.082001 929.039673,107.459900 
	C928.005737,104.345886 927.465088,101.294846 925.996765,98.786972 
	C924.990173,97.067757 922.602478,94.893021 920.988770,95.013779 
	C914.243896,95.518524 907.530090,96.660378 900.862488,97.882874 
	C897.424927,98.513138 896.893738,101.040024 897.229919,104.363258 
	C898.250305,114.448692 899.424011,124.561050 899.607239,134.679779 
	C899.972046,154.830261 899.815979,174.992813 899.644409,195.148422 
	C899.602478,200.071411 901.574097,202.914871 906.308289,203.301636 
	C911.592896,203.733368 916.961731,204.056580 922.224182,203.608612 
	C929.106873,203.022705 930.677124,200.844116 930.681335,193.897415 
	C930.693359,174.073517 930.678650,154.249634 930.689026,134.425735 
	C930.693542,125.735901 938.438232,118.080345 947.273499,117.995026 
	C956.426636,117.906624 959.958008,122.225418 959.965515,133.597809 
	C959.979004,153.921463 960.082947,174.246216 959.888611,194.568008 
	C959.841003,199.552673 961.404358,202.582916 967.313721,203.565445 
M748.438354,128.953735 
	C750.781616,125.717979 752.760376,122.120201 755.541626,119.319382 
	C761.982239,112.833412 760.602722,105.898773 757.674927,98.583511 
	C756.349243,95.271431 754.418823,93.858200 750.569580,93.893829 
	C728.241455,94.100510 705.910400,93.991447 683.580383,93.996796 
	C675.969727,93.998619 674.219604,95.704292 673.997620,103.309761 
	C673.958740,104.641907 673.967529,105.975868 673.975037,107.308884 
	C674.031250,117.295914 675.296448,118.566826 685.177856,118.568069 
	C696.105286,118.569443 707.032715,118.568382 718.814880,118.568382 
	C717.446228,120.673325 716.640259,122.041100 715.712585,123.320602 
	C702.227051,141.921356 689.049377,160.759369 675.056213,178.970612 
	C669.975769,185.582565 670.319336,191.496735 672.883667,198.420197 
	C674.278503,202.186111 676.284668,203.822128 680.578674,203.777496 
	C702.239746,203.552307 723.904541,203.674011 745.567993,203.674011 
	C761.063354,203.674011 761.955750,202.730377 761.076355,187.273605 
	C760.708191,180.802826 758.914490,179.050415 752.487793,179.037918 
	C740.489624,179.014603 728.491333,179.041870 716.493164,179.014328 
	C715.301331,179.011597 714.110046,178.775681 712.467957,178.599701 
	C724.583984,161.877548 736.300598,145.706726 748.438354,128.953735 
M391.733368,196.060516 
	C395.339386,190.845001 394.628571,187.113510 389.323883,179.380096 
	C386.400635,175.118530 383.463440,174.204193 378.409851,176.138824 
	C372.449615,178.420532 366.005829,180.185867 359.671936,180.582657 
	C347.973663,181.315491 340.090515,175.465729 338.394318,163.967133 
	C337.030701,154.722855 336.836914,144.998184 338.080963,135.749893 
	C339.905060,122.189575 347.599701,116.247528 361.211456,117.097885 
	C367.317535,117.479340 373.394257,119.862846 379.255554,121.973114 
	C382.110718,123.001053 384.155365,122.974350 385.775269,120.638573 
	C388.224976,117.106346 390.694275,113.523476 392.569550,109.676620 
	C394.186218,106.360359 393.238434,102.915009 390.160797,100.797928 
	C387.323273,98.846008 384.199463,97.095993 380.951904,95.992294 
	C368.538696,91.773643 355.843170,91.558815 342.997528,93.823593 
	C324.115692,97.152588 312.335907,108.192780 307.546234,126.582092 
	C303.612457,141.685318 303.621429,156.948761 307.479523,172.061691 
	C311.831726,189.110153 322.707489,200.076050 340.023895,203.370071 
	C348.256439,204.936127 356.935791,205.158051 365.325317,204.621628 
	C374.401367,204.041306 383.512726,202.297028 391.733368,196.060516 
M133.911530,160.499420 
	C133.954269,165.830002 133.806076,171.170273 134.075760,176.489349 
	C134.868317,192.122330 142.885986,202.201553 156.733307,204.643372 
	C160.784515,205.357742 165.039978,205.249161 169.180786,205.059189 
	C183.349854,204.409149 187.103622,198.469864 182.287872,185.189331 
	C180.787796,181.052536 178.799667,179.363312 174.164398,180.358917 
	C168.275253,181.623871 165.334457,178.988113 164.985321,173.033585 
	C164.887939,171.372604 164.930847,169.702667 164.930725,168.036835 
	C164.928177,130.551773 164.932693,93.066711 164.924805,55.581654 
	C164.923309,48.489891 163.000366,46.320068 155.906784,45.929768 
	C151.591904,45.692356 147.240875,45.683674 142.927750,45.938656 
	C135.785492,46.360886 133.916702,48.472492 133.915161,55.541115 
	C133.907608,90.193970 133.911621,124.846825 133.911530,160.499420 
M444.777252,75.945290 
	C444.227631,69.863762 442.812744,68.185814 436.972717,67.820290 
	C432.670197,67.551003 428.322266,67.656181 424.014343,67.919006 
	C419.207062,68.212303 416.531647,70.869751 415.990356,75.805733 
	C415.340393,81.732979 414.422729,87.630882 413.631195,93.466232 
	C405.544800,94.792084 404.148865,96.126892 404.059631,103.420418 
	C403.896240,116.775787 404.373260,117.502457 413.623871,119.279289 
	C413.623871,120.975960 413.614227,122.767639 413.625397,124.559189 
	C413.736389,142.370468 413.450439,160.196106 414.088379,177.988571 
	C414.618408,192.771042 422.936310,202.260071 436.420471,204.657104 
	C440.307495,205.348083 444.389160,205.259216 448.363068,205.090820 
	C463.836578,204.435089 467.946381,197.396332 461.297760,183.504257 
	C459.910828,180.606339 458.173126,179.715195 455.019989,180.212540 
	C447.335083,181.424637 444.873810,179.364090 444.823639,171.637039 
	C444.717743,155.321808 444.776398,139.005463 444.790405,122.689590 
	C444.791504,121.405891 444.970367,120.122337 445.062683,118.891151 
	C460.302246,117.491287 460.905853,117.327446 460.918579,110.451614 
	C460.927338,105.724800 461.612030,99.417610 458.997375,96.692955 
	C456.132111,93.707130 449.822174,94.026833 444.777649,92.851120 
	C444.777649,87.840591 444.777649,82.349846 444.777252,75.945290 
M545.351074,110.643471 
	C545.621155,108.502151 546.080933,106.364906 546.127014,104.218773 
	C546.289917,96.636826 542.677979,92.709846 535.094849,92.432213 
	C528.879272,92.204643 523.159424,93.739700 518.830139,98.571548 
	C516.321411,101.371437 514.016724,104.354050 511.440186,107.472275 
	C510.888489,105.401260 510.461273,103.656631 509.958191,101.934151 
	C508.066986,95.459129 506.803894,94.350662 500.042084,94.924980 
	C494.932739,95.358948 489.857269,96.353531 484.812256,97.333023 
	C480.667816,98.137680 479.389374,100.636780 479.953094,104.981903 
	C481.021301,113.215454 481.929321,121.526360 482.039459,129.816605 
	C482.325012,151.305817 482.133423,172.801270 482.149231,194.294220 
	C482.153992,200.770798 483.581879,202.870880 489.966858,203.518341 
	C495.223145,204.051376 500.636719,204.002014 505.884949,203.390350 
	C511.888245,202.690643 513.117249,200.799728 513.122192,194.797302 
	C513.138306,175.137085 513.357361,155.472534 512.986572,135.819290 
	C512.877930,130.060150 515.236877,126.391342 519.351135,123.180183 
	C524.407593,119.233658 530.072388,118.964256 535.934692,120.651276 
	C539.879028,121.786362 542.412842,120.684998 543.600464,116.714767 
	C544.123291,114.966805 544.626892,113.213112 545.351074,110.643471 
z"/>
<path fill="#FDFDFD" opacity="1.000000" stroke="none" 
	d="
M847.193970,202.229584 
	C835.102173,206.162628 823.167480,206.332230 811.329773,203.526108 
	C792.851685,199.145950 782.473572,186.556351 778.331848,168.616608 
	C775.104919,154.639328 775.168274,140.534119 778.950439,126.600685 
	C784.090942,107.663445 796.383667,96.017166 815.778931,93.432297 
	C824.681152,92.245880 834.174988,92.660347 843.003052,94.384232 
	C858.364624,97.383934 868.737061,107.358849 873.615295,122.193581 
	C879.672302,140.612915 879.580078,159.271378 872.766602,177.493210 
	C868.303467,189.429321 859.859680,197.885513 847.193970,202.229584 
M841.073059,173.458710 
	C848.265442,158.898514 847.632263,143.823395 843.286011,128.807907 
	C840.890991,120.533493 835.333130,116.978806 827.439575,116.888672 
	C819.205322,116.794655 813.565918,120.303513 810.743896,128.473175 
	C806.098816,141.920410 806.021179,155.710953 810.728882,169.074585 
	C815.483765,182.571899 831.289917,184.957230 841.073059,173.458710 
z"/>
<path fill="#FDFDFD" opacity="1.000000" stroke="none" 
	d="
M558.351196,174.527893 
	C553.758606,159.676636 553.366394,144.904984 556.387817,130.226166 
	C561.615112,104.831215 580.385803,91.159340 607.287964,92.417206 
	C631.807251,93.563652 646.863831,104.156227 652.892456,124.738548 
	C656.114014,135.736832 656.784058,147.028412 655.515686,158.372726 
	C654.945801,163.469849 654.083435,168.631668 652.536255,173.504562 
	C647.074219,190.707367 635.563965,201.782242 617.470764,204.054306 
	C608.383606,205.195435 598.755615,205.042404 589.774048,203.346436 
	C573.996887,200.367294 563.831848,189.989944 558.351196,174.527893 
M610.575500,117.424980 
	C598.857544,115.634621 591.608704,119.433411 588.421753,129.964539 
	C584.628479,142.499283 584.706055,155.279999 588.498718,167.820557 
	C591.109497,176.453323 597.152283,180.738358 605.370667,180.774094 
	C613.632263,180.810013 619.387817,176.624329 622.032532,167.714783 
	C625.807861,154.996201 625.756836,142.115799 621.955322,129.386200 
	C620.327393,123.934654 617.160706,119.533012 610.575500,117.424980 
z"/>
<path fill="#FCFDFD" opacity="1.000000" stroke="none" 
	d="
M21.951490,177.962646 
	C14.477753,158.626648 14.646911,139.391464 21.327864,120.479759 
	C27.233252,103.763458 40.517365,95.368843 57.561718,93.216194 
	C64.557800,92.332596 71.995705,92.312637 78.879501,93.678978 
	C97.949249,97.464043 107.057961,111.052597 110.933060,128.968491 
	C111.703705,132.531433 112.022194,136.203369 112.384239,139.841461 
	C113.585403,151.912018 107.394226,158.821808 95.466011,158.821838 
	C81.640518,158.821869 67.815033,158.821838 53.989540,158.821854 
	C52.360680,158.821854 50.731819,158.821854 49.109188,158.821854 
	C49.037426,170.877060 55.215168,178.175720 66.263412,180.169846 
	C75.903519,181.909775 84.861130,179.610138 93.395058,175.701340 
	C98.332428,173.439850 101.099388,174.955994 103.865608,178.851318 
	C111.869667,190.122528 110.324173,195.778152 97.316063,200.561371 
	C83.070969,205.799454 68.426483,206.677902 53.586712,203.473526 
	C38.945114,200.311920 28.424675,191.909912 21.951490,177.962646 
M59.485340,118.655029 
	C52.070290,122.892769 50.111229,130.022400 48.778008,137.832520 
	C60.288170,137.832520 71.228828,137.832520 82.161568,137.832520 
	C82.515129,121.037674 74.150139,113.685349 59.485340,118.655029 
z"/>
<path fill="#FDFDFD" opacity="1.000000" stroke="none" 
	d="
M1039.755371,96.645798 
	C1050.586792,92.320625 1061.483765,91.383347 1072.498169,93.170090 
	C1087.165283,95.549309 1097.618530,103.989510 1102.732056,117.770905 
	C1105.578979,125.443512 1107.009766,133.832062 1107.817505,142.022354 
	C1108.816284,152.149475 1101.832886,158.821045 1091.681396,158.821304 
	C1077.516113,158.821655 1063.350830,158.821396 1049.185547,158.821396 
	C1047.551758,158.821396 1045.917969,158.821396 1044.259644,158.821396 
	C1045.104736,173.370956 1052.538696,180.966324 1067.107788,180.505066 
	C1074.554443,180.269318 1082.092041,177.867783 1089.250244,175.445297 
	C1093.595215,173.974884 1096.086670,174.772232 1098.668335,178.076431 
	C1107.453613,189.320572 1105.906128,195.760620 1092.630737,200.569885 
	C1076.332397,206.474274 1059.695312,207.170486 1043.131714,201.803986 
	C1028.739746,197.141159 1019.680054,186.758118 1015.336670,172.622543 
	C1010.162415,155.783585 1010.653442,138.739059 1016.083496,121.986565 
	C1019.937378,110.096786 1027.867676,101.716270 1039.755371,96.645798 
M1050.005737,122.556824 
	C1047.771362,127.453018 1045.536865,132.349213 1043.025635,137.852203 
	C1055.428101,137.852203 1066.523071,137.852203 1077.974365,137.852203 
	C1077.517334,129.998749 1076.720459,122.535469 1069.244385,118.246475 
	C1063.739258,115.088188 1056.212402,116.826988 1050.005737,122.556824 
z"/>
<path fill="#FDFDFD" opacity="1.000000" stroke="none" 
	d="
M238.789383,179.626221 
	C249.758453,182.314774 259.699310,179.804382 269.243256,175.498596 
	C273.505432,173.575729 276.047241,174.863510 278.588165,178.183075 
	C287.320221,189.590942 285.747833,195.778839 272.395081,200.638824 
	C258.293365,205.771393 243.778259,206.717484 229.123337,203.549759 
	C211.214951,199.678787 199.777267,188.621750 194.773544,171.102661 
	C190.218994,155.156311 190.628448,139.071701 195.479874,123.322113 
	C201.078369,105.147377 214.417831,95.634712 232.743591,93.209610 
	C239.579163,92.305054 246.838699,92.271690 253.591751,93.526497 
	C271.748993,96.900337 281.325897,109.391975 285.616760,126.503662 
	C286.784119,131.158951 287.033661,136.037537 287.870392,140.784378 
	C288.903717,146.646606 286.829681,151.473648 282.389435,154.901382 
	C279.852081,156.860138 276.363373,158.580582 273.263489,158.650269 
	C256.972595,159.016449 240.669144,158.821625 224.386368,158.821625 
	C224.025299,169.229584 228.751068,176.062027 238.789383,179.626221 
M230.627136,138.077286 
	C239.666885,138.077286 248.706635,138.077286 257.753052,138.077286 
	C257.235840,124.185814 252.360168,117.211334 243.462128,116.895317 
	C232.599136,116.509514 225.461838,124.248497 224.224350,138.077286 
	C226.055878,138.077286 227.863388,138.077286 230.627136,138.077286 
z"/>
<path fill="#FDFDFD" opacity="1.000000" stroke="none" 
	d="
M966.901978,203.454559 
	C961.404358,202.582916 959.841003,199.552673 959.888611,194.568008 
	C960.082947,174.246216 959.979004,153.921463 959.965515,133.597809 
	C959.958008,122.225418 956.426636,117.906624 947.273499,117.995026 
	C938.438232,118.080345 930.693542,125.735901 930.689026,134.425735 
	C930.678650,154.249634 930.693359,174.073517 930.681335,193.897415 
	C930.677124,200.844116 929.106873,203.022705 922.224182,203.608612 
	C916.961731,204.056580 911.592896,203.733368 906.308289,203.301636 
	C901.574097,202.914871 899.602478,200.071411 899.644409,195.148422 
	C899.815979,174.992813 899.972046,154.830261 899.607239,134.679779 
	C899.424011,124.561050 898.250305,114.448692 897.229919,104.363258 
	C896.893738,101.040024 897.424927,98.513138 900.862488,97.882874 
	C907.530090,96.660378 914.243896,95.518524 920.988770,95.013779 
	C922.602478,94.893021 924.990173,97.067757 925.996765,98.786972 
	C927.465088,101.294846 928.005737,104.345886 929.039673,107.459900 
	C931.731262,105.082001 934.158447,102.718109 936.807556,100.636642 
	C946.611877,92.932899 957.777954,90.859924 969.792847,93.338638 
	C980.967041,95.643913 987.866333,103.094261 989.886108,114.801842 
	C990.534180,118.558220 990.890442,122.411743 990.906006,126.222763 
	C990.999268,149.044861 990.962708,171.867508 990.949402,194.689972 
	C990.945862,200.705292 989.709473,202.658020 983.730042,203.350937 
	C978.322266,203.977600 972.790710,203.535995 966.901978,203.454559 
z"/>
<path fill="#FCFCFD" opacity="1.000000" stroke="none" 
	d="
M748.227783,129.244812 
	C736.300598,145.706726 724.583984,161.877548 712.467957,178.599701 
	C714.110046,178.775681 715.301331,179.011597 716.493164,179.014328 
	C728.491333,179.041870 740.489624,179.014603 752.487793,179.037918 
	C758.914490,179.050415 760.708191,180.802826 761.076355,187.273605 
	C761.955750,202.730377 761.063354,203.674011 745.567993,203.674011 
	C723.904541,203.674011 702.239746,203.552307 680.578674,203.777496 
	C676.284668,203.822128 674.278503,202.186111 672.883667,198.420197 
	C670.319336,191.496735 669.975769,185.582565 675.056213,178.970612 
	C689.049377,160.759369 702.227051,141.921356 715.712585,123.320602 
	C716.640259,122.041100 717.446228,120.673325 718.814880,118.568382 
	C707.032715,118.568382 696.105286,118.569443 685.177856,118.568069 
	C675.296448,118.566826 674.031250,117.295914 673.975037,107.308884 
	C673.967529,105.975868 673.958740,104.641907 673.997620,103.309761 
	C674.219604,95.704292 675.969727,93.998619 683.580383,93.996796 
	C705.910400,93.991447 728.241455,94.100510 750.569580,93.893829 
	C754.418823,93.858200 756.349243,95.271431 757.674927,98.583511 
	C760.602722,105.898773 761.982239,112.833412 755.541626,119.319382 
	C752.760376,122.120201 750.781616,125.717979 748.227783,129.244812 
z"/>
<path fill="#FDFDFD" opacity="1.000000" stroke="none" 
	d="
M391.456482,196.320740 
	C383.512726,202.297028 374.401367,204.041306 365.325317,204.621628 
	C356.935791,205.158051 348.256439,204.936127 340.023895,203.370071 
	C322.707489,200.076050 311.831726,189.110153 307.479523,172.061691 
	C303.621429,156.948761 303.612457,141.685318 307.546234,126.582092 
	C312.335907,108.192780 324.115692,97.152588 342.997528,93.823593 
	C355.843170,91.558815 368.538696,91.773643 380.951904,95.992294 
	C384.199463,97.095993 387.323273,98.846008 390.160797,100.797928 
	C393.238434,102.915009 394.186218,106.360359 392.569550,109.676620 
	C390.694275,113.523476 388.224976,117.106346 385.775269,120.638573 
	C384.155365,122.974350 382.110718,123.001053 379.255554,121.973114 
	C373.394257,119.862846 367.317535,117.479340 361.211456,117.097885 
	C347.599701,116.247528 339.905060,122.189575 338.080963,135.749893 
	C336.836914,144.998184 337.030701,154.722855 338.394318,163.967133 
	C340.090515,175.465729 347.973663,181.315491 359.671936,180.582657 
	C366.005829,180.185867 372.449615,178.420532 378.409851,176.138824 
	C383.463440,174.204193 386.400635,175.118530 389.323883,179.380096 
	C394.628571,187.113510 395.339386,190.845001 391.456482,196.320740 
z"/>
<path fill="#FEFEFE" opacity="1.000000" stroke="none" 
	d="
M133.911530,159.999542 
	C133.911621,124.846825 133.907608,90.193970 133.915161,55.541115 
	C133.916702,48.472492 135.785492,46.360886 142.927750,45.938656 
	C147.240875,45.683674 151.591904,45.692356 155.906784,45.929768 
	C163.000366,46.320068 164.923309,48.489891 164.924805,55.581654 
	C164.932693,93.066711 164.928177,130.551773 164.930725,168.036835 
	C164.930847,169.702667 164.887939,171.372604 164.985321,173.033585 
	C165.334457,178.988113 168.275253,181.623871 174.164398,180.358917 
	C178.799667,179.363312 180.787796,181.052536 182.287872,185.189331 
	C187.103622,198.469864 183.349854,204.409149 169.180786,205.059189 
	C165.039978,205.249161 160.784515,205.357742 156.733307,204.643372 
	C142.885986,202.201553 134.868317,192.122330 134.075760,176.489349 
	C133.806076,171.170273 133.954269,165.830002 133.911530,159.999542 
z"/>
<path fill="#FDFDFD" opacity="1.000000" stroke="none" 
	d="
M444.777466,76.402191 
	C444.777649,82.349846 444.777649,87.840591 444.777649,92.851120 
	C449.822174,94.026833 456.132111,93.707130 458.997375,96.692955 
	C461.612030,99.417610 460.927338,105.724800 460.918579,110.451614 
	C460.905853,117.327446 460.302246,117.491287 445.062683,118.891151 
	C444.970367,120.122337 444.791504,121.405891 444.790405,122.689590 
	C444.776398,139.005463 444.717743,155.321808 444.823639,171.637039 
	C444.873810,179.364090 447.335083,181.424637 455.019989,180.212540 
	C458.173126,179.715195 459.910828,180.606339 461.297760,183.504257 
	C467.946381,197.396332 463.836578,204.435089 448.363068,205.090820 
	C444.389160,205.259216 440.307495,205.348083 436.420471,204.657104 
	C422.936310,202.260071 414.618408,192.771042 414.088379,177.988571 
	C413.450439,160.196106 413.736389,142.370468 413.625397,124.559189 
	C413.614227,122.767639 413.623871,120.975960 413.623871,119.279289 
	C404.373260,117.502457 403.896240,116.775787 404.059631,103.420418 
	C404.148865,96.126892 405.544800,94.792084 413.631195,93.466232 
	C414.422729,87.630882 415.340393,81.732979 415.990356,75.805733 
	C416.531647,70.869751 419.207062,68.212303 424.014343,67.919006 
	C428.322266,67.656181 432.670197,67.551003 436.972717,67.820290 
	C442.812744,68.185814 444.227631,69.863762 444.777466,76.402191 
z"/>
<path fill="#FDFDFD" opacity="1.000000" stroke="none" 
	d="
M545.245117,111.052750 
	C544.626892,113.213112 544.123291,114.966805 543.600464,116.714767 
	C542.412842,120.684998 539.879028,121.786362 535.934692,120.651276 
	C530.072388,118.964256 524.407593,119.233658 519.351135,123.180183 
	C515.236877,126.391342 512.877930,130.060150 512.986572,135.819290 
	C513.357361,155.472534 513.138306,175.137085 513.122192,194.797302 
	C513.117249,200.799728 511.888245,202.690643 505.884949,203.390350 
	C500.636719,204.002014 495.223145,204.051376 489.966858,203.518341 
	C483.581879,202.870880 482.153992,200.770798 482.149231,194.294220 
	C482.133423,172.801270 482.325012,151.305817 482.039459,129.816605 
	C481.929321,121.526360 481.021301,113.215454 479.953094,104.981903 
	C479.389374,100.636780 480.667816,98.137680 484.812256,97.333023 
	C489.857269,96.353531 494.932739,95.358948 500.042084,94.924980 
	C506.803894,94.350662 508.066986,95.459129 509.958191,101.934151 
	C510.461273,103.656631 510.888489,105.401260 511.440186,107.472275 
	C514.016724,104.354050 516.321411,101.371437 518.830139,98.571548 
	C523.159424,93.739700 528.879272,92.204643 535.094849,92.432213 
	C542.677979,92.709846 546.289917,96.636826 546.127014,104.218773 
	C546.080933,106.364906 545.621155,108.502151 545.245117,111.052750 
z"/>
<path fill="#151B41" opacity="1.000000" stroke="none" 
	d="
M840.881714,173.775024 
	C831.289917,184.957230 815.483765,182.571899 810.728882,169.074585 
	C806.021179,155.710953 806.098816,141.920410 810.743896,128.473175 
	C813.565918,120.303513 819.205322,116.794655 827.439575,116.888672 
	C835.333130,116.978806 840.890991,120.533493 843.286011,128.807907 
	C847.632263,143.823395 848.265442,158.898514 840.881714,173.775024 
z"/>
<path fill="#151B41" opacity="1.000000" stroke="none" 
	d="
M610.952698,117.584229 
	C617.160706,119.533012 620.327393,123.934654 621.955322,129.386200 
	C625.756836,142.115799 625.807861,154.996201 622.032532,167.714783 
	C619.387817,176.624329 613.632263,180.810013 605.370667,180.774094 
	C597.152283,180.738358 591.109497,176.453323 588.498718,167.820557 
	C584.706055,155.279999 584.628479,142.499283 588.421753,129.964539 
	C591.608704,119.433411 598.857544,115.634621 610.952698,117.584229 
z"/>
<path fill="#151B41" opacity="1.000000" stroke="none" 
	d="
M59.815605,118.445511 
	C74.150139,113.685349 82.515129,121.037674 82.161568,137.832520 
	C71.228828,137.832520 60.288170,137.832520 48.778008,137.832520 
	C50.111229,130.022400 52.070290,122.892769 59.815605,118.445511 
z"/>
<path fill="#161C41" opacity="1.000000" stroke="none" 
	d="
M1050.244629,122.279800 
	C1056.212402,116.826988 1063.739258,115.088188 1069.244385,118.246475 
	C1076.720459,122.535469 1077.517334,129.998749 1077.974365,137.852203 
	C1066.523071,137.852203 1055.428101,137.852203 1043.025635,137.852203 
	C1045.536865,132.349213 1047.771362,127.453018 1050.244629,122.279800 
z"/>
<path fill="#161C42" opacity="1.000000" stroke="none" 
	d="
M230.149017,138.077286 
	C227.863388,138.077286 226.055878,138.077286 224.224350,138.077286 
	C225.461838,124.248497 232.599136,116.509514 243.462128,116.895317 
	C252.360168,117.211334 257.235840,124.185814 257.753052,138.077286 
	C248.706635,138.077286 239.666885,138.077286 230.149017,138.077286 
z"/>
</svg>