<svg version="1.1" id="Layer_1" xmlns="http://www.w3.org/2000/svg" xmlns:xlink="http://www.w3.org/1999/xlink" x="0px" y="0px"
	 width="100%" viewBox="0 0 1550 550" enable-background="new 0 0 1550 550" xml:space="preserve">
<path fill="#13193F" opacity="1.000000" stroke="none" 
	d="
M1216.000000,551.000000 
	C810.714783,551.000000 405.929565,551.000000 1.072173,551.000000 
	C1.072173,367.736603 1.072173,184.473160 1.072173,1.104857 
	C517.666626,1.104857 1034.333374,1.104857 1550.979736,1.104857 
	C1550.979736,184.404007 1550.979736,367.701996 1550.979736,551.000000 
	C1439.472900,551.000000 1327.986450,551.000000 1216.000000,551.000000 
M520.045227,486.082825 
	C525.044800,486.075562 530.044434,486.066406 535.044006,486.061462 
	C541.997131,486.054535 542.000610,486.055908 542.000671,478.974274 
	C542.001343,327.819763 542.004395,176.665283 541.992493,25.510782 
	C541.991821,17.180965 542.812866,18.010824 534.491028,18.010155 
	C383.503174,17.997997 232.515335,18.001284 81.527496,18.001419 
	C80.360924,18.001419 79.185158,18.098110 78.029579,17.985924 
	C75.030907,17.694799 73.857414,18.912014 73.936295,21.984175 
	C74.098785,28.312794 73.983185,34.648552 73.055199,41.119087 
	C67.391151,41.140083 61.705307,41.475697 56.069778,41.085163 
	C51.336426,40.757149 50.230537,42.517544 50.233566,47.014755 
	C50.336197,199.289032 50.341328,351.563416 50.216953,503.837646 
	C50.212959,508.726624 51.665592,509.919556 56.415409,509.915833 
	C208.689682,509.796936 360.964050,509.818878 513.238403,509.807068 
	C515.005920,509.806946 516.773438,509.642517 519.128784,509.525635 
	C519.128784,501.383575 519.128784,493.747620 520.045227,486.082825 
M1131.326904,239.188919 
	C1131.224243,235.365967 1131.247803,231.534760 1130.998047,227.721436 
	C1129.431519,203.797516 1116.030396,189.483170 1092.285889,187.539886 
	C1067.656616,185.524200 1049.218750,195.867874 1044.475830,221.986435 
	C1043.356567,228.150101 1043.005615,234.592133 1043.323486,240.854187 
	C1044.786621,269.676727 1059.326294,284.635620 1086.256226,285.554291 
	C1107.587646,286.281982 1122.697144,276.538330 1128.406494,257.716187 
	C1130.119995,252.067368 1130.371704,245.975159 1131.326904,239.188919 
M1248.387573,198.889618 
	C1245.194824,204.452652 1241.174072,209.711533 1238.993774,215.646500 
	C1235.266479,225.791992 1235.308716,236.527969 1236.754150,247.214844 
	C1240.106201,271.996521 1254.096191,284.858795 1279.042114,285.491425 
	C1294.263062,285.877441 1308.518188,282.242218 1316.397705,268.040192 
	C1327.718140,247.636368 1328.085449,225.962692 1316.893188,205.540085 
	C1304.984009,183.809097 1268.334595,180.534592 1248.387573,198.889618 
M1379.500122,191.937393 
	C1376.008423,194.587631 1372.516602,197.237854 1368.852783,200.018692 
	C1368.130005,197.731827 1367.931519,195.151001 1366.607178,193.443329 
	C1365.179810,191.602890 1362.654053,189.364258 1360.684937,189.435562 
	C1355.423340,189.626038 1350.183228,190.859528 1344.974121,191.880005 
	C1341.814575,192.498962 1341.000977,194.477692 1341.363159,197.785538 
	C1342.285645,206.212143 1343.111572,214.687012 1343.247070,223.154221 
	C1343.526855,240.647919 1343.317383,258.149231 1343.340942,275.647369 
	C1343.349487,281.905884 1344.943604,283.696808 1351.192627,284.058838 
	C1355.009644,284.279938 1358.862915,284.279175 1362.677856,284.034302 
	C1368.720703,283.646393 1370.257935,281.920166 1370.265869,275.972107 
	C1370.289062,258.640625 1370.258423,241.309067 1370.283569,223.977600 
	C1370.294678,216.295441 1377.265259,209.594696 1385.117065,209.632309 
	C1392.891968,209.669556 1395.899048,213.355576 1395.911987,223.012192 
	C1395.936157,240.843613 1396.042480,258.676483 1395.840698,276.505646 
	C1395.784790,281.448975 1398.082520,283.671997 1402.513062,283.946655 
	C1406.990601,284.224182 1411.518921,284.280731 1415.987915,283.942657 
	C1421.306030,283.540344 1422.873535,281.577301 1422.880371,276.164581 
	C1422.905273,256.333374 1422.930542,236.501907 1422.844238,216.671036 
	C1422.829834,213.356369 1422.478638,210.006134 1421.908569,206.737686 
	C1420.002563,195.811295 1413.287598,189.535721 1402.310913,187.777542 
	C1394.439941,186.516830 1387.082764,187.684357 1379.500122,191.937393 
M1495.811035,263.729065 
	C1492.484985,263.790222 1489.132202,264.150146 1485.837646,263.857330 
	C1475.304565,262.921265 1469.201416,255.843292 1469.511719,245.004105 
	C1483.819458,245.004105 1498.138672,245.151779 1512.449097,244.864517 
	C1514.950195,244.814316 1517.728027,243.363220 1519.837524,241.820206 
	C1526.387695,237.028976 1524.739014,230.131561 1524.009155,223.509995 
	C1521.681030,202.385086 1509.277832,189.020935 1489.259644,187.483398 
	C1468.182861,185.864563 1449.160889,194.362961 1443.426514,217.106445 
	C1440.367676,229.239059 1440.023193,241.522476 1443.075195,253.709656 
	C1446.527222,267.494446 1454.351562,277.818024 1468.207153,282.397064 
	C1483.487671,287.447021 1498.743896,286.576019 1513.568970,280.425262 
	C1522.109131,276.882019 1523.211792,272.846039 1518.509521,264.824554 
	C1517.922119,263.822235 1517.235962,262.876526 1516.575439,261.918457 
	C1514.507202,258.919525 1512.091553,257.992676 1508.456055,259.604889 
	C1504.684570,261.277496 1500.599609,262.243530 1495.811035,263.729065 
M631.470642,263.286377 
	C628.163635,263.522186 624.846619,264.052185 621.551331,263.940643 
	C610.013367,263.550110 603.838806,257.132111 603.326050,245.003983 
	C617.648499,245.003983 631.963501,245.169754 646.267883,244.854538 
	C648.912292,244.796280 651.843079,243.243362 654.072693,241.605621 
	C660.471558,236.905228 658.670227,230.109070 657.999695,223.688446 
	C655.789062,202.521103 643.447876,189.127487 623.448181,187.503693 
	C602.245300,185.782181 583.191528,194.472931 577.499695,216.945267 
	C574.382568,229.252274 574.014832,241.699585 577.168152,254.028244 
	C580.635559,267.585175 588.407104,277.792847 602.068542,282.336945 
	C617.516846,287.475342 632.913513,286.599945 647.878235,280.276825 
	C655.986938,276.850616 657.098450,273.047974 652.861694,265.416229 
	C652.138367,264.113190 651.246948,262.900269 650.393127,261.673615 
	C648.408325,258.822052 646.017151,258.038055 642.641357,259.533966 
	C639.319092,261.006165 635.755554,261.933685 631.470642,263.286377 
M810.973755,227.673538 
	C810.630127,225.201660 810.373596,222.714005 809.929138,220.260376 
	C806.358521,200.546432 794.922302,189.056458 775.953430,187.517700 
	C755.720093,185.876343 734.957703,193.304794 729.337280,219.265121 
	C726.955688,230.265656 726.723877,241.474976 729.221619,252.477066 
	C732.864502,268.523376 742.274414,279.621674 758.649475,283.665894 
	C771.722900,286.894714 784.780151,286.161713 797.443115,281.524780 
	C809.745850,277.019714 810.515808,272.463745 802.709473,261.438538 
	C800.827820,258.781067 798.501526,258.175110 795.323425,259.445312 
	C791.174194,261.103546 786.915894,262.691315 782.556030,263.583649 
	C766.720337,266.824768 756.278870,259.572113 755.870972,245.003754 
	C769.679199,245.003754 783.486328,244.772354 797.278381,245.127151 
	C802.217285,245.254196 805.297363,243.313919 808.341431,239.839218 
	C811.354858,236.399536 811.195312,232.586899 810.973755,227.673538 
M1170.061279,232.544403 
	C1162.822754,242.514877 1155.975220,252.804230 1148.201172,262.337921 
	C1143.424683,268.195465 1143.742554,273.638092 1146.232544,279.875122 
	C1147.420166,282.849884 1149.119629,284.123840 1152.565063,284.090942 
	C1171.895386,283.906311 1191.228149,284.001984 1210.560181,284.002014 
	C1222.519775,284.002014 1223.464478,283.002228 1222.974976,270.861084 
	C1222.968262,270.694580 1222.968262,270.527710 1222.958618,270.361389 
	C1222.607178,264.239899 1221.150879,262.832245 1215.024780,262.822601 
	C1203.775635,262.804932 1192.526489,262.817566 1180.416260,262.817566 
	C1181.905884,260.616760 1182.854980,259.129425 1183.887329,257.702332 
	C1195.304932,241.919113 1206.484009,225.953522 1218.295776,210.470642 
	C1222.552124,204.891479 1222.600586,199.827408 1220.350098,193.820938 
	C1219.020630,190.272690 1217.258301,188.654144 1213.129883,188.709549 
	C1194.634399,188.957672 1176.133911,188.817413 1157.635132,188.817551 
	C1147.838867,188.817627 1146.988770,189.691238 1147.028687,199.730240 
	C1147.032715,200.730026 1147.010742,201.733093 1147.081665,202.728897 
	C1147.492676,208.510742 1149.044189,209.985413 1154.814209,209.996536 
	C1165.067993,210.016296 1175.321655,210.002075 1186.400635,210.002075 
	C1180.768188,217.791397 1175.636963,224.887436 1170.061279,232.544403 
M898.902039,193.544540 
	C885.978577,186.428772 872.240723,186.117554 858.183716,188.757172 
	C842.564941,191.690063 832.691589,201.058105 828.497131,216.216141 
	C824.739319,229.796661 824.750427,243.580582 828.355957,257.174347 
	C832.016357,270.975189 840.869507,280.073914 854.863464,283.563263 
	C868.285278,286.910034 881.627869,286.093903 894.610168,281.361847 
	C904.547119,277.739807 905.951538,273.167084 900.298950,264.347168 
	C899.761353,263.508240 899.139343,262.723785 898.565735,261.907562 
	C896.556091,259.047760 894.207153,258.380768 890.830811,259.883881 
	C887.216736,261.492859 883.397034,262.888031 879.524109,263.622986 
	C865.152954,266.350220 856.351685,260.763611 854.497742,246.670792 
	C853.495789,239.054642 853.903503,231.007690 855.160095,223.400345 
	C856.822388,213.336639 863.297913,208.295944 873.466736,208.784225 
	C879.106873,209.055054 884.829346,210.832550 890.173401,212.839752 
	C893.370850,214.040756 895.235352,213.570129 896.983215,211.171432 
	C898.543091,209.030853 899.932312,206.760498 901.314392,204.497116 
	C903.761292,200.490173 903.340820,196.931442 898.902039,193.544540 
M677.101624,218.499969 
	C677.116455,231.649292 676.868652,244.805771 677.226379,257.945740 
	C677.530823,269.127899 680.585571,279.218689 692.362793,283.673370 
	C699.382629,286.328613 706.753479,286.244080 713.973206,284.308563 
	C720.165100,282.648590 722.037109,279.337006 720.766541,273.129608 
	C720.467529,271.668732 719.996399,270.242645 719.593323,268.803650 
	C718.525757,264.992310 716.759277,262.962708 712.089294,263.821045 
	C706.676086,264.816010 704.519104,262.548248 704.138550,256.970428 
	C704.036804,255.478790 704.098083,253.975510 704.098022,252.477570 
	C704.096008,219.853531 704.105347,187.229507 704.086121,154.605469 
	C704.082947,149.216736 702.529968,147.376358 697.166565,146.966354 
	C693.197327,146.662888 689.177490,146.645996 685.202393,146.879333 
	C678.678528,147.262283 677.110413,149.067551 677.106506,155.580887 
	C677.094177,176.220581 677.101746,196.860275 677.101624,218.499969 
M920.681885,258.942230 
	C921.528137,282.013763 937.026001,287.940857 955.930725,284.760956 
	C963.365845,283.510315 965.659973,279.556976 963.932251,272.228760 
	C963.553162,270.620697 962.909607,269.075928 962.408264,267.495544 
	C961.487122,264.592163 959.958496,263.314667 956.514343,263.768860 
	C949.579651,264.683472 947.788818,262.967957 947.715698,255.955566 
	C947.602783,245.129608 947.678650,234.301666 947.675415,223.474564 
	C947.674072,219.057449 947.675171,214.640335 947.675171,210.298203 
	C961.029541,209.360153 961.686157,209.140930 961.812622,202.628250 
	C961.888672,198.714142 962.399597,193.346191 960.206604,191.225250 
	C957.543213,188.649307 952.237854,188.805008 947.672852,187.679642 
	C947.672852,183.324371 947.715332,178.504623 947.661804,173.685928 
	C947.598206,167.958542 946.185364,166.369400 940.897888,165.865692 
	C928.666748,164.700470 924.064148,166.174576 922.924927,171.715363 
	C922.490112,173.830429 922.284302,175.992615 921.974731,178.133423 
	C921.479065,181.561539 920.983948,184.989761 920.504272,188.309753 
	C913.362061,189.472549 912.358643,190.643463 912.143433,197.727783 
	C911.847595,207.462219 912.809082,208.993103 920.638123,210.718430 
	C920.638123,226.430145 920.638123,242.229492 920.681885,258.942230 
M1004.069824,194.645950 
	C1003.165222,191.249878 1001.334656,188.744690 997.459229,189.252747 
	C992.197754,189.942505 986.961487,190.877121 981.753967,191.906708 
	C978.544312,192.541275 977.780579,194.674301 978.198975,197.886490 
	C979.057129,204.475174 979.950378,211.111664 980.035889,217.738724 
	C980.287415,237.231766 980.134094,256.729828 980.177917,276.225830 
	C980.190002,281.609772 981.796326,283.552856 987.110046,283.965057 
	C991.248352,284.286072 995.442505,284.272949 999.588379,284.021576 
	C1005.608215,283.656555 1007.118286,281.902985 1007.124146,275.946198 
	C1007.140869,258.949524 1007.310669,241.949738 1007.015381,224.958221 
	C1006.932556,220.192215 1008.812134,217.043045 1012.218811,214.342850 
	C1016.446289,210.992035 1021.102661,210.451523 1026.356079,211.570908 
	C1028.341675,211.994003 1032.236450,211.180359 1032.623169,210.037704 
	C1034.244629,205.246994 1035.525879,200.133789 1035.646729,195.107819 
	C1035.744385,191.043488 1032.784790,188.155106 1028.345337,187.536087 
	C1021.396545,186.567184 1015.512878,188.545059 1010.886353,193.892151 
	C1009.226013,195.811111 1007.700745,197.846970 1005.772217,200.256226 
	C1005.134460,198.208435 1004.703186,196.823593 1004.069824,194.645950 
M1490.205322,343.642151 
	C1482.028320,351.819244 1480.276489,365.585785 1486.175537,375.311218 
	C1491.378662,383.889709 1499.618652,385.926910 1512.506348,381.843475 
	C1513.065796,381.666199 1513.719727,381.502930 1514.268066,381.620331 
	C1517.675659,382.350220 1521.065674,383.162231 1524.528076,383.962372 
	C1524.528076,361.328888 1524.528076,339.964996 1524.528076,318.610626 
	C1520.885254,318.610626 1517.633179,318.610626 1513.874756,318.610626 
	C1513.874756,326.575623 1513.874756,334.253571 1513.874756,342.113617 
	C1503.809082,338.113647 1498.207153,338.426636 1490.205322,343.642151 
M1331.480225,350.879089 
	C1330.548096,347.256104 1329.615845,343.633148 1328.753052,340.280334 
	C1325.063965,340.280334 1321.971313,340.280334 1318.376953,340.280334 
	C1321.893311,352.278473 1325.302612,363.902100 1328.705933,375.527405 
	C1331.097534,383.696411 1331.093994,383.697449 1340.034668,383.101135 
	C1342.817139,374.453430 1345.649780,365.649780 1348.482544,356.846161 
	C1351.450317,363.276062 1353.452637,369.575195 1355.452148,375.875244 
	C1357.874634,383.508392 1357.873657,383.512085 1365.838745,383.293793 
	C1366.135132,383.285675 1366.426147,383.082306 1367.053345,382.842163 
	C1371.125000,368.871399 1375.253540,354.705750 1379.474243,340.223938 
	C1375.714844,340.223938 1372.457031,340.223938 1369.044922,340.223938 
	C1366.612671,349.806793 1364.218872,359.238312 1361.496094,369.966064 
	C1358.562744,359.474152 1355.988403,350.266327 1353.432495,341.124390 
	C1350.197266,341.124390 1347.395386,341.124390 1344.398193,341.124390 
	C1341.809814,350.333435 1339.250732,359.437988 1336.691650,368.542542 
	C1336.416870,368.539734 1336.142212,368.536926 1335.867432,368.534119 
	C1334.496582,362.908264 1333.125732,357.282410 1331.480225,350.879089 
M1145.965454,403.663544 
	C1154.867554,382.645172 1163.769653,361.626801 1172.838013,340.215942 
	C1170.933594,340.127777 1169.768066,340.228699 1168.672729,339.997314 
	C1162.755737,338.747406 1159.755127,341.234375 1157.952759,346.932373 
	C1155.779419,353.804230 1152.658325,360.376343 1149.644653,367.826874 
	C1146.933716,361.102356 1144.562500,355.273102 1142.231689,349.427734 
	C1138.359009,339.715729 1138.369873,339.708374 1127.951538,340.100647 
	C1127.697388,340.110229 1127.453125,340.383942 1126.889771,340.724731 
	C1131.971924,352.190552 1136.895630,363.758209 1142.251099,375.122406 
	C1144.029053,378.895050 1144.331421,382.018127 1142.532471,385.859955 
	C1139.787964,391.721466 1137.654297,397.868927 1135.143433,404.191315 
	C1139.081543,404.191315 1142.230103,404.191315 1145.965454,403.663544 
M1069.149414,340.022797 
	C1066.511963,340.022797 1063.874634,340.022797 1060.640747,340.022797 
	C1061.459839,341.978363 1062.054688,343.474884 1062.707886,344.945374 
	C1067.428467,355.570862 1072.306519,366.130554 1076.766113,376.864197 
	C1077.657593,379.010040 1077.638428,382.041229 1076.880493,384.270264 
	C1074.620483,390.917328 1071.784180,397.368500 1068.991211,404.350922 
	C1070.888794,404.350922 1072.072021,404.183319 1073.191284,404.379913 
	C1078.023315,405.228699 1080.376831,403.344940 1082.260132,398.620728 
	C1089.392578,380.728546 1097.116943,363.072418 1104.603149,345.320953 
	C1105.277832,343.721436 1105.834106,342.071991 1106.604248,340.022766 
	C1104.214722,340.022766 1102.511353,340.269867 1100.906738,339.976562 
	C1096.056030,339.089813 1093.928345,341.397400 1092.407593,345.775238 
	C1089.911621,352.961121 1086.776123,359.924835 1083.551880,367.865082 
	C1080.110352,359.184143 1077.122803,351.327454 1073.821655,343.604858 
	C1073.194946,342.138611 1071.325317,341.203583 1069.149414,340.022797 
M1188.025146,382.822662 
	C1191.792847,383.243622 1195.578857,384.140137 1199.324585,383.994965 
	C1209.868530,383.586365 1218.041504,375.206604 1218.958374,364.380432 
	C1219.972412,352.406830 1213.482422,342.444580 1203.045044,339.953217 
	C1190.967773,337.070435 1180.117310,342.283112 1176.076538,352.909424 
	C1171.617676,364.634552 1176.189575,376.668579 1188.025146,382.822662 
M1426.776001,358.916016 
	C1426.536255,357.778717 1426.332520,356.632416 1426.051025,355.505554 
	C1423.391602,344.859497 1414.240723,338.396393 1402.977295,339.194122 
	C1391.414185,340.013062 1383.667847,347.702087 1382.361572,359.657654 
	C1381.188965,370.390045 1387.464233,380.225891 1397.405151,383.237000 
	C1413.667358,388.162811 1427.084473,377.475342 1426.776001,358.916016 
M887.989197,373.978302 
	C884.210144,371.828186 881.660034,368.935760 881.776245,363.946533 
	C891.057556,363.946533 900.014465,363.946533 908.877869,363.946533 
	C911.990417,353.507751 907.357117,343.436646 898.267700,340.408539 
	C886.913940,336.626129 875.282837,342.100098 871.450195,353.029785 
	C867.095520,365.448212 872.716370,379.055969 884.127930,382.769287 
	C892.156067,385.381653 900.173218,384.722778 908.046814,380.901642 
	C907.903259,378.031281 907.766174,375.290710 907.622559,372.418488 
	C897.144348,375.758728 894.846375,375.968231 887.989197,373.978302 
M842.150574,352.598358 
	C839.350281,343.828552 834.088379,339.756165 825.035828,339.352722 
	C816.001160,338.950073 808.387329,343.440399 805.093506,351.502930 
	C801.495178,360.310669 802.066589,368.950531 808.139404,376.441193 
	C814.977295,384.875458 824.434753,385.309021 834.157043,383.312927 
	C841.925293,381.717987 842.595337,380.109314 839.748901,372.466888 
	C825.077820,378.159973 814.895203,374.760132 815.087341,363.946899 
	C824.036560,363.946899 832.992859,363.946899 842.361572,363.946899 
	C842.361572,360.245636 842.361572,356.824554 842.150574,352.598358 
M1226.040405,345.631348 
	C1226.251953,353.596558 1225.704224,361.672729 1226.847900,369.501770 
	C1228.696777,382.158722 1239.595093,387.512146 1251.419800,382.418610 
	C1252.192993,382.085541 1253.120850,381.697174 1253.887329,381.834412 
	C1257.184570,382.424713 1260.448364,383.201813 1263.866699,383.941650 
	C1263.866699,368.585022 1263.866699,354.393768 1263.866699,340.168823 
	C1260.356079,340.168823 1257.223755,340.168823 1253.615112,340.168823 
	C1253.615112,349.587524 1253.455688,358.876526 1253.686035,368.155823 
	C1253.792480,372.444183 1251.498413,374.197052 1247.940308,374.945557 
	C1241.299072,376.342682 1237.238037,373.015289 1237.033813,365.662811 
	C1236.800171,357.242767 1236.979736,348.811310 1236.979736,340.210388 
	C1233.110474,340.210388 1229.850830,340.210388 1226.274658,340.210388 
	C1226.192261,341.776825 1226.116333,343.220398 1226.040405,345.631348 
M1049.240967,335.627380 
	C1049.383179,328.237000 1050.021851,327.597107 1057.789673,327.258270 
	C1058.086304,324.709229 1058.386475,322.130066 1058.871826,317.958832 
	C1053.446289,318.798767 1048.139404,318.434021 1044.070435,320.503296 
	C1036.206421,324.502533 1039.408936,333.038757 1038.365845,339.661682 
	C1036.447510,339.973602 1034.867920,340.230469 1033.199585,340.501740 
	C1033.007935,343.375092 1032.834351,345.976105 1032.647095,348.784760 
	C1034.723877,348.926758 1036.489868,349.047485 1038.772705,349.203552 
	C1038.772705,360.699646 1038.772705,371.917206 1038.772705,382.970215 
	C1042.553711,382.970215 1045.776855,382.970215 1049.386230,382.970215 
	C1049.386230,371.503265 1049.386230,360.402161 1049.386230,348.884430 
	C1052.709595,348.884430 1055.632568,348.884430 1058.608154,348.884430 
	C1058.608154,345.726257 1058.608154,343.005066 1058.608154,340.027924 
	C1056.316528,340.027924 1054.318604,339.856781 1052.362061,340.068115 
	C1049.450439,340.382660 1048.949463,338.858978 1049.240967,335.627380 
M940.304688,375.208771 
	C930.309387,375.161804 925.090332,370.115082 926.053650,360.528290 
	C926.375427,357.325592 927.921448,353.583557 930.169800,351.369354 
	C935.483521,346.136261 942.124634,348.429810 949.654358,350.435059 
	C948.786926,346.669312 949.078369,342.465729 947.340332,341.307404 
	C938.398193,335.348022 922.064087,340.712463 917.181152,350.627594 
	C912.668335,359.791412 914.448486,371.903229 921.265076,378.414124 
	C928.067932,384.911804 940.054382,386.231628 949.378662,381.349915 
	C949.169250,378.706604 948.951416,375.957367 948.725281,373.103821 
	C945.910278,373.856262 943.538696,374.490173 940.304688,375.208771 
M975.342651,348.979706 
	C976.731506,348.866394 978.120422,348.753082 979.272461,348.659058 
	C979.272461,345.444824 979.272461,342.843567 979.272461,339.825134 
	C976.028076,339.825134 973.107300,339.825134 969.811462,339.825134 
	C969.811462,336.145508 969.811462,332.889679 969.811462,329.471344 
	C966.127869,329.843079 962.869568,330.171875 959.199280,330.542267 
	C959.199280,333.801666 959.199280,336.720795 959.199280,339.730255 
	C957.200195,339.974304 955.635437,340.165314 954.088196,340.354187 
	C953.750183,343.212097 953.442078,345.817230 953.106750,348.652435 
	C955.252930,348.892853 957.132141,349.103363 959.156738,349.330139 
	C959.156738,357.142334 959.068787,364.619568 959.183167,372.093689 
	C959.282776,378.603455 962.487854,383.197205 967.746094,383.883362 
	C971.286316,384.345367 974.935608,383.971405 978.744202,383.971405 
	C978.956665,380.977509 979.139099,378.406036 979.342407,375.540833 
	C977.362671,375.421173 975.896851,375.244873 974.433472,375.262726 
	C971.556519,375.297821 970.088257,373.961731 970.085815,371.075043 
	C970.079590,363.803864 970.083740,356.532715 970.083740,348.979736 
	C971.810913,348.979736 973.114563,348.979736 975.342651,348.979706 
M861.035278,322.720703 
	C860.928101,321.308105 860.820923,319.895508 860.728027,318.671051 
	C856.981873,318.671051 853.740417,318.671051 850.247314,318.671051 
	C850.247314,337.310181 849.988281,355.594330 850.365662,373.865387 
	C850.533447,381.990417 856.209534,385.310577 865.433655,383.518646 
	C865.647827,381.021851 865.869751,378.433990 866.128601,375.416351 
	C861.003296,375.746674 861.057373,372.386444 861.054382,369.100159 
	C861.040405,353.959747 861.040344,338.819305 861.035278,322.720703 
M1473.795898,362.471405 
	C1473.795898,347.885284 1473.795898,333.299133 1473.795898,318.569977 
	C1469.865723,318.569977 1466.616211,318.569977 1462.953369,318.569977 
	C1462.953369,320.291473 1462.953369,321.753601 1462.953369,323.215729 
	C1462.953369,339.038422 1462.940796,354.861115 1462.958008,370.683807 
	C1462.969727,381.480469 1466.902588,384.975647 1477.871704,383.852783 
	C1478.205200,381.268219 1478.542725,378.651550 1478.972168,375.322144 
	C1473.212646,376.278534 1473.949219,372.300537 1473.825439,368.955505 
	C1473.757812,367.125732 1473.802002,365.291809 1473.795898,362.471405 
M997.436462,353.973846 
	C1001.086731,352.039154 1004.737061,350.104492 1009.331970,347.669159 
	C1009.452148,345.970551 1009.682007,342.721863 1010.021423,337.924530 
	C1004.966431,340.003906 1000.986572,341.641022 997.204895,343.196625 
	C995.504944,336.967590 990.437805,341.351227 986.928223,339.831085 
	C986.928223,354.672180 986.928223,368.872467 986.928223,383.039246 
	C990.503235,383.039246 993.739197,383.039246 997.262451,383.039246 
	C997.262451,373.449585 997.262451,364.162811 997.436462,353.973846 
M1274.276978,356.502991 
	C1274.276978,365.274902 1274.276978,374.046783 1274.276978,383.059906 
	C1278.082397,383.059906 1281.464722,383.059906 1285.098267,383.059906 
	C1285.098267,374.454041 1285.089478,366.152496 1285.101440,357.850952 
	C1285.109253,352.388519 1287.295776,350.009674 1292.675171,349.650055 
	C1294.080566,349.556122 1295.497559,349.635895 1296.972778,349.635895 
	C1297.251831,345.981598 1297.499512,342.736755 1297.865601,337.942474 
	C1292.924683,339.932251 1289.079834,341.480652 1285.229248,343.031311 
	C1283.279297,337.265930 1278.443359,340.892609 1274.276978,340.073608 
	C1274.276978,345.585022 1274.276978,350.545166 1274.276978,356.502991 
M1436.053955,383.336517 
	C1438.983643,383.336517 1441.913452,383.336517 1445.060181,383.336517 
	C1445.060181,374.593414 1445.056396,366.448639 1445.061401,358.303894 
	C1445.065308,352.024994 1447.321045,349.754028 1453.671631,349.629547 
	C1454.744141,349.608521 1455.817261,349.626587 1456.939331,349.626587 
	C1457.200195,345.936890 1457.429443,342.695740 1457.767090,337.922699 
	C1452.801025,339.950897 1448.947388,341.524750 1444.922119,343.168732 
	C1444.688354,342.460999 1444.300415,341.286530 1444.001221,340.380981 
	C1440.620728,340.380981 1437.550293,340.380981 1434.242432,340.380981 
	C1434.242432,354.368774 1434.231812,367.993164 1434.282715,381.617371 
	C1434.284668,382.138855 1434.879517,382.658081 1436.053955,383.336517 
M1015.094360,345.648163 
	C1015.094360,358.080109 1015.094360,370.512024 1015.094360,383.008606 
	C1018.998108,383.008606 1022.388611,383.008606 1025.713867,383.008606 
	C1025.713867,368.570831 1025.713867,354.477234 1025.713867,340.205139 
	C1022.192505,340.205139 1018.929871,340.205139 1015.345581,340.205139 
	C1015.256958,341.786163 1015.175659,343.235687 1015.094360,345.648163 
M1015.335266,332.832886 
	C1018.805786,333.073242 1022.276245,333.313599 1025.656616,333.547729 
	C1025.656616,329.453583 1025.656616,326.232635 1025.656616,322.805054 
	C1023.704895,322.805054 1022.068909,322.805054 1020.432922,322.805054 
	C1018.711731,322.805054 1016.990479,322.805054 1015.120239,322.805054 
	C1015.120239,326.390259 1015.120239,329.180023 1015.335266,332.832886 
z"/>
<path fill="#A24392" opacity="1.000000" stroke="none" 
	d="
M519.128784,486.111664 
	C519.128784,493.747620 519.128784,501.383575 519.128784,509.525635 
	C516.773438,509.642517 515.005920,509.806946 513.238403,509.807068 
	C360.964050,509.818878 208.689682,509.796936 56.415409,509.915833 
	C51.665592,509.919556 50.212959,508.726624 50.216953,503.837646 
	C50.341328,351.563416 50.336197,199.289032 50.233566,47.014755 
	C50.230537,42.517544 51.336426,40.757149 56.069778,41.085163 
	C61.705307,41.475697 67.391151,41.140083 73.988022,41.080406 
	C220.514313,41.050842 366.107788,41.059849 511.701263,41.069382 
	C518.967712,41.069859 518.969910,41.071987 518.969910,48.337734 
	C518.970337,191.765778 518.969421,335.193848 518.976807,478.621887 
	C518.976990,481.118469 519.075928,483.615082 519.128784,486.111664 
M368.587799,445.023804 
	C368.862793,444.821136 369.137817,444.618500 369.952454,444.279449 
	C370.385986,443.946106 370.819519,443.612732 371.916779,443.074371 
	C402.565277,423.744537 429.053986,399.980103 449.329834,369.744781 
	C463.368103,348.810944 472.628113,325.934235 474.851807,300.670197 
	C477.579437,269.680695 470.026764,240.821671 455.106720,213.820877 
	C438.895691,184.483658 413.901031,164.811157 383.798248,151.457001 
	C343.770172,133.699814 303.337463,131.809265 263.027771,150.790955 
	C223.958344,169.188614 203.457993,208.054520 211.093430,249.575500 
	C214.263641,266.814911 221.705948,282.074036 235.078156,294.483673 
	C235.296021,294.451630 235.513885,294.419556 235.731750,294.387482 
	C235.584579,294.161530 235.437408,293.935608 235.281158,292.890015 
	C230.795410,276.147949 233.552597,260.137787 240.650131,244.761810 
	C267.372437,186.871094 348.050598,172.954544 394.634918,218.251312 
	C422.279449,245.131744 432.905212,278.915527 432.605774,316.519012 
	C432.336945,350.272797 420.864075,380.601593 400.881317,407.453583 
	C391.681305,419.816193 380.608582,430.785156 369.912720,442.631409 
	C369.542725,443.023956 369.172699,443.416473 368.338715,444.017517 
	C368.183380,444.304138 368.028046,444.590729 367.451904,444.993774 
	C367.469696,445.218506 367.487488,445.443268 367.505280,445.667999 
	C367.693939,445.472198 367.882599,445.276428 368.587799,445.023804 
M194.098740,111.753929 
	C193.664810,112.093384 193.230896,112.432846 192.141800,112.979416 
	C162.697388,133.158524 137.291702,157.380722 118.168678,187.726517 
	C99.267830,217.719757 89.696106,250.284866 95.359695,285.740997 
	C103.393951,336.038208 129.127960,374.444733 175.088791,398.071167 
	C214.359283,418.258331 255.074814,423.744080 297.133484,407.953979 
	C340.328186,391.737366 367.456299,353.666138 361.017883,308.359711 
	C358.136841,288.086304 349.742279,270.568848 333.897247,256.576019 
	C333.698914,256.611816 333.500549,256.647583 333.302216,256.683380 
	C333.483215,256.843018 333.664185,257.002625 333.764740,257.969482 
	C339.683289,278.199677 336.109772,297.323334 326.065887,315.241943 
	C299.280823,363.027405 234.997986,378.312469 188.884384,347.466156 
	C154.073425,324.180389 139.181229,289.465179 136.104507,249.002014 
	C133.344727,212.707123 143.779282,179.695221 164.052597,149.965042 
	C172.819733,137.108322 183.679779,125.678772 194.060455,113.341171 
	C194.410400,112.927292 194.760361,112.513412 195.496552,111.928490 
	C195.215591,111.837585 194.934631,111.746681 194.098740,111.753929 
M117.885895,357.577148 
	C117.690865,357.619873 117.495834,357.662598 117.300804,357.705353 
	C117.537270,357.800018 117.773735,357.894684 117.846481,358.603394 
	C118.166214,359.124908 118.485947,359.646423 118.963837,360.846405 
	C137.832977,391.163452 160.892990,417.660980 190.447357,438.015594 
	C241.660858,473.287323 294.943207,475.507874 349.176758,445.934570 
	C385.508545,426.122955 406.812317,393.769135 419.036224,355.172211 
	C429.295959,322.777191 428.475098,290.405396 414.874329,259.003662 
	C394.793091,212.639801 350.644196,190.754196 304.637115,204.121643 
	C290.868042,208.122299 278.597076,214.987549 268.640808,226.101349 
	C268.670898,226.269897 268.700958,226.438461 268.731049,226.607010 
	C268.812439,226.396378 268.893829,226.185760 269.796448,226.160278 
	C287.775879,221.451019 304.845795,224.565140 321.100098,232.704285 
	C376.885132,260.638000 389.422485,339.676971 345.087433,385.273254 
	C314.162964,417.077423 275.297028,426.373016 232.546127,422.429626 
	C200.937164,419.514038 173.388290,406.047302 148.799484,386.612030 
	C138.404282,378.395569 129.207123,368.663422 119.220024,359.110229 
	C118.812126,358.741638 118.404228,358.373077 117.885895,357.577148 
M304.845367,324.674957 
	C287.201385,329.697174 270.152100,327.472900 253.786591,319.860657 
	C202.468124,295.990295 183.622818,228.809631 215.176880,180.581436 
	C237.663086,146.212845 271.498627,130.830566 311.173523,127.159653 
	C351.112915,123.464264 386.909607,135.481506 419.003387,158.710159 
	C430.142181,166.772079 440.105316,176.458313 450.947845,185.789337 
	C451.175110,185.778824 451.402344,185.768311 451.629608,185.757797 
	C451.494781,185.434601 451.359924,185.111420 451.036682,184.126007 
	C429.526703,152.448166 403.483795,125.416962 370.267395,105.850449 
	C341.045807,88.637085 309.563293,80.664818 275.876923,86.417862 
	C227.676483,94.649658 190.215469,119.125679 166.729614,162.952072 
	C145.532211,202.508026 139.393768,243.674377 154.803055,286.717590 
	C168.728790,325.616730 204.398804,358.343536 254.081589,351.956818 
	C274.565735,349.323578 292.284241,340.870209 306.486725,324.903687 
	C306.448364,324.679718 306.410004,324.455750 306.371613,324.231781 
	C306.127472,324.368927 305.883362,324.506073 304.845367,324.674957 
M452.551086,187.145172 
	C452.472687,187.224289 452.336273,187.300568 452.332214,187.383347 
	C452.328156,187.465851 452.456848,187.554886 452.527313,187.641052 
	C452.605804,187.561996 452.684296,187.482956 452.551086,187.145172 
M365.764893,446.536041 
	C365.764893,446.536041 365.466736,446.416321 365.466736,446.416321 
	C365.466736,446.416321 365.542084,446.692139 365.764893,446.536041 
z"/>
<path fill="#5B2E69" opacity="1.000000" stroke="none" 
	d="
M519.587036,486.097229 
	C519.075928,483.615082 518.976990,481.118469 518.976807,478.621887 
	C518.969421,335.193848 518.970337,191.765778 518.969910,48.337734 
	C518.969910,41.071987 518.967712,41.069859 511.701263,41.069382 
	C366.107788,41.059849 220.514313,41.050842 74.451416,41.011551 
	C73.983185,34.648552 74.098785,28.312794 73.936295,21.984175 
	C73.857414,18.912014 75.030907,17.694799 78.029579,17.985924 
	C79.185158,18.098110 80.360924,18.001419 81.527496,18.001419 
	C232.515335,18.001284 383.503174,17.997997 534.491028,18.010155 
	C542.812866,18.010824 541.991821,17.180965 541.992493,25.510782 
	C542.004395,176.665283 542.001343,327.819763 542.000671,478.974274 
	C542.000610,486.055908 541.997131,486.054535 535.044006,486.061462 
	C530.044434,486.066406 525.044800,486.075562 519.587036,486.097229 
z"/>
<path fill="#FCFCFD" opacity="1.000000" stroke="none" 
	d="
M1131.310059,239.637512 
	C1130.371704,245.975159 1130.119995,252.067368 1128.406494,257.716187 
	C1122.697144,276.538330 1107.587646,286.281982 1086.256226,285.554291 
	C1059.326294,284.635620 1044.786621,269.676727 1043.323486,240.854187 
	C1043.005615,234.592133 1043.356567,228.150101 1044.475830,221.986435 
	C1049.218750,195.867874 1067.656616,185.524200 1092.285889,187.539886 
	C1116.030396,189.483170 1129.431519,203.797516 1130.998047,227.721436 
	C1131.247803,231.534760 1131.224243,235.365967 1131.310059,239.637512 
M1081.624023,209.542831 
	C1076.921753,211.394272 1074.166260,215.036209 1072.787231,219.689240 
	C1069.496704,230.792862 1069.416260,242.000641 1072.842285,253.048492 
	C1075.224121,260.729309 1080.142456,264.102051 1087.546387,264.070343 
	C1094.791016,264.039368 1099.609131,260.414856 1101.973389,252.689133 
	C1104.904419,243.110779 1104.753296,233.321884 1102.956177,223.580185 
	C1100.751221,211.626541 1094.446045,207.333069 1081.624023,209.542831 
z"/>
<path fill="#FDFDFD" opacity="1.000000" stroke="none" 
	d="
M1248.640137,198.636658 
	C1268.334595,180.534592 1304.984009,183.809097 1316.893188,205.540085 
	C1328.085449,225.962692 1327.718140,247.636368 1316.397705,268.040192 
	C1308.518188,282.242218 1294.263062,285.877441 1279.042114,285.491425 
	C1254.096191,284.858795 1240.106201,271.996521 1236.754150,247.214844 
	C1235.308716,236.527969 1235.266479,225.791992 1238.993774,215.646500 
	C1241.174072,209.711533 1245.194824,204.452652 1248.640137,198.636658 
M1292.632202,215.033920 
	C1284.609619,204.793976 1270.482422,206.522034 1266.075073,218.692230 
	C1261.820557,230.440338 1262.046143,242.568832 1266.142334,254.384964 
	C1268.460083,261.070770 1273.398926,264.071655 1280.302124,264.062195 
	C1287.151611,264.052795 1291.983032,261.033051 1294.202637,254.125412 
	C1298.336792,241.258606 1298.485962,228.345947 1292.632202,215.033920 
z"/>
<path fill="#FCFCFD" opacity="1.000000" stroke="none" 
	d="
M1379.816162,191.741531 
	C1387.082764,187.684357 1394.439941,186.516830 1402.310913,187.777542 
	C1413.287598,189.535721 1420.002563,195.811295 1421.908569,206.737686 
	C1422.478638,210.006134 1422.829834,213.356369 1422.844238,216.671036 
	C1422.930542,236.501907 1422.905273,256.333374 1422.880371,276.164581 
	C1422.873535,281.577301 1421.306030,283.540344 1415.987915,283.942657 
	C1411.518921,284.280731 1406.990601,284.224182 1402.513062,283.946655 
	C1398.082520,283.671997 1395.784790,281.448975 1395.840698,276.505646 
	C1396.042480,258.676483 1395.936157,240.843613 1395.911987,223.012192 
	C1395.899048,213.355576 1392.891968,209.669556 1385.117065,209.632309 
	C1377.265259,209.594696 1370.294678,216.295441 1370.283569,223.977600 
	C1370.258423,241.309067 1370.289062,258.640625 1370.265869,275.972107 
	C1370.257935,281.920166 1368.720703,283.646393 1362.677856,284.034302 
	C1358.862915,284.279175 1355.009644,284.279938 1351.192627,284.058838 
	C1344.943604,283.696808 1343.349487,281.905884 1343.340942,275.647369 
	C1343.317383,258.149231 1343.526855,240.647919 1343.247070,223.154221 
	C1343.111572,214.687012 1342.285645,206.212143 1341.363159,197.785538 
	C1341.000977,194.477692 1341.814575,192.498962 1344.974121,191.880005 
	C1350.183228,190.859528 1355.423340,189.626038 1360.684937,189.435562 
	C1362.654053,189.364258 1365.179810,191.602890 1366.607178,193.443329 
	C1367.931519,195.151001 1368.130005,197.731827 1368.852783,200.018692 
	C1372.516602,197.237854 1376.008423,194.587631 1379.816162,191.741531 
z"/>
<path fill="#FDFDFD" opacity="1.000000" stroke="none" 
	d="
M1496.231445,263.623840 
	C1500.599609,262.243530 1504.684570,261.277496 1508.456055,259.604889 
	C1512.091553,257.992676 1514.507202,258.919525 1516.575439,261.918457 
	C1517.235962,262.876526 1517.922119,263.822235 1518.509521,264.824554 
	C1523.211792,272.846039 1522.109131,276.882019 1513.568970,280.425262 
	C1498.743896,286.576019 1483.487671,287.447021 1468.207153,282.397064 
	C1454.351562,277.818024 1446.527222,267.494446 1443.075195,253.709656 
	C1440.023193,241.522476 1440.367676,229.239059 1443.426514,217.106445 
	C1449.160889,194.362961 1468.182861,185.864563 1489.259644,187.483398 
	C1509.277832,189.020935 1521.681030,202.385086 1524.009155,223.509995 
	C1524.739014,230.131561 1526.387695,237.028976 1519.837524,241.820206 
	C1517.728027,243.363220 1514.950195,244.814316 1512.449097,244.864517 
	C1498.138672,245.151779 1483.819458,245.004105 1469.511719,245.004105 
	C1469.201416,255.843292 1475.304565,262.921265 1485.837646,263.857330 
	C1489.132202,264.150146 1492.484985,263.790222 1496.231445,263.623840 
M1484.500488,227.034988 
	C1489.084229,227.034988 1493.668091,227.034988 1498.244385,227.034988 
	C1498.171631,214.857162 1493.783325,208.711563 1485.483765,208.579803 
	C1476.331543,208.434509 1469.962524,215.738556 1469.581787,227.034988 
	C1474.227051,227.034988 1478.866211,227.034988 1484.500488,227.034988 
z"/>
<path fill="#FDFDFD" opacity="1.000000" stroke="none" 
	d="
M631.884277,263.193298 
	C635.755554,261.933685 639.319092,261.006165 642.641357,259.533966 
	C646.017151,258.038055 648.408325,258.822052 650.393127,261.673615 
	C651.246948,262.900269 652.138367,264.113190 652.861694,265.416229 
	C657.098450,273.047974 655.986938,276.850616 647.878235,280.276825 
	C632.913513,286.599945 617.516846,287.475342 602.068542,282.336945 
	C588.407104,277.792847 580.635559,267.585175 577.168152,254.028244 
	C574.014832,241.699585 574.382568,229.252274 577.499695,216.945267 
	C583.191528,194.472931 602.245300,185.782181 623.448181,187.503693 
	C643.447876,189.127487 655.789062,202.521103 657.999695,223.688446 
	C658.670227,230.109070 660.471558,236.905228 654.072693,241.605621 
	C651.843079,243.243362 648.912292,244.796280 646.267883,244.854538 
	C631.963501,245.169754 617.648499,245.003983 603.326050,245.003983 
	C603.838806,257.132111 610.013367,263.550110 621.551331,263.940643 
	C624.846619,264.052185 628.163635,263.522186 631.884277,263.193298 
M625.464478,227.036255 
	C627.721191,227.036255 629.977905,227.036255 632.228699,227.036255 
	C632.163452,214.823776 627.798401,208.695984 619.505249,208.583771 
	C610.339172,208.459717 604.070984,215.632629 603.587341,227.036255 
	C610.553711,227.036255 617.511292,227.036255 625.464478,227.036255 
z"/>
<path fill="#FDFDFD" opacity="1.000000" stroke="none" 
	d="
M810.989075,228.131210 
	C811.195312,232.586899 811.354858,236.399536 808.341431,239.839218 
	C805.297363,243.313919 802.217285,245.254196 797.278381,245.127151 
	C783.486328,244.772354 769.679199,245.003754 755.870972,245.003754 
	C756.278870,259.572113 766.720337,266.824768 782.556030,263.583649 
	C786.915894,262.691315 791.174194,261.103546 795.323425,259.445312 
	C798.501526,258.175110 800.827820,258.781067 802.709473,261.438538 
	C810.515808,272.463745 809.745850,277.019714 797.443115,281.524780 
	C784.780151,286.161713 771.722900,286.894714 758.649475,283.665894 
	C742.274414,279.621674 732.864502,268.523376 729.221619,252.477066 
	C726.723877,241.474976 726.955688,230.265656 729.337280,219.265121 
	C734.957703,193.304794 755.720093,185.876343 775.953430,187.517700 
	C794.922302,189.056458 806.358521,200.546432 809.929138,220.260376 
	C810.373596,222.714005 810.630127,225.201660 810.989075,228.131210 
M781.823486,213.825394 
	C777.687988,208.792343 772.214294,207.251053 766.330444,209.462845 
	C760.359070,211.707489 756.154602,218.809235 756.109924,226.765961 
	C765.697021,226.765961 775.281372,226.765961 785.839844,226.765961 
	C784.500244,222.340088 783.316833,218.430130 781.823486,213.825394 
z"/>
<path fill="#FEFEFE" opacity="1.000000" stroke="none" 
	d="
M1170.283569,232.263947 
	C1175.636963,224.887436 1180.768188,217.791397 1186.400635,210.002075 
	C1175.321655,210.002075 1165.067993,210.016296 1154.814209,209.996536 
	C1149.044189,209.985413 1147.492676,208.510742 1147.081665,202.728897 
	C1147.010742,201.733093 1147.032715,200.730026 1147.028687,199.730240 
	C1146.988770,189.691238 1147.838867,188.817627 1157.635132,188.817551 
	C1176.133911,188.817413 1194.634399,188.957672 1213.129883,188.709549 
	C1217.258301,188.654144 1219.020630,190.272690 1220.350098,193.820938 
	C1222.600586,199.827408 1222.552124,204.891479 1218.295776,210.470642 
	C1206.484009,225.953522 1195.304932,241.919113 1183.887329,257.702332 
	C1182.854980,259.129425 1181.905884,260.616760 1180.416260,262.817566 
	C1192.526489,262.817566 1203.775635,262.804932 1215.024780,262.822601 
	C1221.150879,262.832245 1222.607178,264.239899 1222.958618,270.361389 
	C1222.968262,270.527710 1222.968262,270.694580 1222.974976,270.861084 
	C1223.464478,283.002228 1222.519775,284.002014 1210.560181,284.002014 
	C1191.228149,284.001984 1171.895386,283.906311 1152.565063,284.090942 
	C1149.119629,284.123840 1147.420166,282.849884 1146.232544,279.875122 
	C1143.742554,273.638092 1143.424683,268.195465 1148.201172,262.337921 
	C1155.975220,252.804230 1162.822754,242.514877 1170.283569,232.263947 
z"/>
<path fill="#FCFCFD" opacity="1.000000" stroke="none" 
	d="
M899.201294,193.765442 
	C903.340820,196.931442 903.761292,200.490173 901.314392,204.497116 
	C899.932312,206.760498 898.543091,209.030853 896.983215,211.171432 
	C895.235352,213.570129 893.370850,214.040756 890.173401,212.839752 
	C884.829346,210.832550 879.106873,209.055054 873.466736,208.784225 
	C863.297913,208.295944 856.822388,213.336639 855.160095,223.400345 
	C853.903503,231.007690 853.495789,239.054642 854.497742,246.670792 
	C856.351685,260.763611 865.152954,266.350220 879.524109,263.622986 
	C883.397034,262.888031 887.216736,261.492859 890.830811,259.883881 
	C894.207153,258.380768 896.556091,259.047760 898.565735,261.907562 
	C899.139343,262.723785 899.761353,263.508240 900.298950,264.347168 
	C905.951538,273.167084 904.547119,277.739807 894.610168,281.361847 
	C881.627869,286.093903 868.285278,286.910034 854.863464,283.563263 
	C840.869507,280.073914 832.016357,270.975189 828.355957,257.174347 
	C824.750427,243.580582 824.739319,229.796661 828.497131,216.216141 
	C832.691589,201.058105 842.564941,191.690063 858.183716,188.757172 
	C872.240723,186.117554 885.978577,186.428772 899.201294,193.765442 
z"/>
<path fill="#FDFDFD" opacity="1.000000" stroke="none" 
	d="
M677.101624,217.999969 
	C677.101746,196.860275 677.094177,176.220581 677.106506,155.580887 
	C677.110413,149.067551 678.678528,147.262283 685.202393,146.879333 
	C689.177490,146.645996 693.197327,146.662888 697.166565,146.966354 
	C702.529968,147.376358 704.082947,149.216736 704.086121,154.605469 
	C704.105347,187.229507 704.096008,219.853531 704.098022,252.477570 
	C704.098083,253.975510 704.036804,255.478790 704.138550,256.970428 
	C704.519104,262.548248 706.676086,264.816010 712.089294,263.821045 
	C716.759277,262.962708 718.525757,264.992310 719.593323,268.803650 
	C719.996399,270.242645 720.467529,271.668732 720.766541,273.129608 
	C722.037109,279.337006 720.165100,282.648590 713.973206,284.308563 
	C706.753479,286.244080 699.382629,286.328613 692.362793,283.673370 
	C680.585571,279.218689 677.530823,269.127899 677.226379,257.945740 
	C676.868652,244.805771 677.116455,231.649292 677.101624,217.999969 
z"/>
<path fill="#FCFCFC" opacity="1.000000" stroke="none" 
	d="
M920.660034,258.485535 
	C920.638123,242.229492 920.638123,226.430145 920.638123,210.718430 
	C912.809082,208.993103 911.847595,207.462219 912.143433,197.727783 
	C912.358643,190.643463 913.362061,189.472549 920.504272,188.309753 
	C920.983948,184.989761 921.479065,181.561539 921.974731,178.133423 
	C922.284302,175.992615 922.490112,173.830429 922.924927,171.715363 
	C924.064148,166.174576 928.666748,164.700470 940.897888,165.865692 
	C946.185364,166.369400 947.598206,167.958542 947.661804,173.685928 
	C947.715332,178.504623 947.672852,183.324371 947.672852,187.679642 
	C952.237854,188.805008 957.543213,188.649307 960.206604,191.225250 
	C962.399597,193.346191 961.888672,198.714142 961.812622,202.628250 
	C961.686157,209.140930 961.029541,209.360153 947.675171,210.298203 
	C947.675171,214.640335 947.674072,219.057449 947.675415,223.474564 
	C947.678650,234.301666 947.602783,245.129608 947.715698,255.955566 
	C947.788818,262.967957 949.579651,264.683472 956.514343,263.768860 
	C959.958496,263.314667 961.487122,264.592163 962.408264,267.495544 
	C962.909607,269.075928 963.553162,270.620697 963.932251,272.228760 
	C965.659973,279.556976 963.365845,283.510315 955.930725,284.760956 
	C937.026001,287.940857 921.528137,282.013763 920.660034,258.485535 
z"/>
<path fill="#FCFCFD" opacity="1.000000" stroke="none" 
	d="
M1004.170837,195.042343 
	C1004.703186,196.823593 1005.134460,198.208435 1005.772217,200.256226 
	C1007.700745,197.846970 1009.226013,195.811111 1010.886353,193.892151 
	C1015.512878,188.545059 1021.396545,186.567184 1028.345337,187.536087 
	C1032.784790,188.155106 1035.744385,191.043488 1035.646729,195.107819 
	C1035.525879,200.133789 1034.244629,205.246994 1032.623169,210.037704 
	C1032.236450,211.180359 1028.341675,211.994003 1026.356079,211.570908 
	C1021.102661,210.451523 1016.446289,210.992035 1012.218811,214.342850 
	C1008.812134,217.043045 1006.932556,220.192215 1007.015381,224.958221 
	C1007.310669,241.949738 1007.140869,258.949524 1007.124146,275.946198 
	C1007.118286,281.902985 1005.608215,283.656555 999.588379,284.021576 
	C995.442505,284.272949 991.248352,284.286072 987.110046,283.965057 
	C981.796326,283.552856 980.190002,281.609772 980.177917,276.225830 
	C980.134094,256.729828 980.287415,237.231766 980.035889,217.738724 
	C979.950378,211.111664 979.057129,204.475174 978.198975,197.886490 
	C977.780579,194.674301 978.544312,192.541275 981.753967,191.906708 
	C986.961487,190.877121 992.197754,189.942505 997.459229,189.252747 
	C1001.334656,188.744690 1003.165222,191.249878 1004.170837,195.042343 
z"/>
<path fill="#F9F9FA" opacity="1.000000" stroke="none" 
	d="
M1490.482666,343.406586 
	C1498.207153,338.426636 1503.809082,338.113647 1513.874756,342.113617 
	C1513.874756,334.253571 1513.874756,326.575623 1513.874756,318.610626 
	C1517.633179,318.610626 1520.885254,318.610626 1524.528076,318.610626 
	C1524.528076,339.964996 1524.528076,361.328888 1524.528076,383.962372 
	C1521.065674,383.162231 1517.675659,382.350220 1514.268066,381.620331 
	C1513.719727,381.502930 1513.065796,381.666199 1512.506348,381.843475 
	C1499.618652,385.926910 1491.378662,383.889709 1486.175537,375.311218 
	C1480.276489,365.585785 1482.028320,351.819244 1490.482666,343.406586 
M1514.338867,359.159485 
	C1513.883789,354.012634 1512.173950,349.670929 1506.514038,348.449341 
	C1502.009521,347.477112 1498.163208,348.967041 1495.937744,353.050293 
	C1492.802856,358.801941 1492.844116,364.807831 1495.934326,370.605438 
	C1497.956421,374.399292 1501.431396,375.568787 1505.584595,375.257751 
	C1509.780762,374.943573 1512.386108,372.509979 1513.440308,368.765717 
	C1514.229736,365.962097 1514.128906,362.907776 1514.338867,359.159485 
z"/>
<path fill="#F9F9FA" opacity="1.000000" stroke="none" 
	d="
M1331.617554,351.267822 
	C1333.125732,357.282410 1334.496582,362.908264 1335.867432,368.534119 
	C1336.142212,368.536926 1336.416870,368.539734 1336.691650,368.542542 
	C1339.250732,359.437988 1341.809814,350.333435 1344.398193,341.124390 
	C1347.395386,341.124390 1350.197266,341.124390 1353.432495,341.124390 
	C1355.988403,350.266327 1358.562744,359.474152 1361.496094,369.966064 
	C1364.218872,359.238312 1366.612671,349.806793 1369.044922,340.223938 
	C1372.457031,340.223938 1375.714844,340.223938 1379.474243,340.223938 
	C1375.253540,354.705750 1371.125000,368.871399 1367.053345,382.842163 
	C1366.426147,383.082306 1366.135132,383.285675 1365.838745,383.293793 
	C1357.873657,383.512085 1357.874634,383.508392 1355.452148,375.875244 
	C1353.452637,369.575195 1351.450317,363.276062 1348.482544,356.846161 
	C1345.649780,365.649780 1342.817139,374.453430 1340.034668,383.101135 
	C1331.093994,383.697449 1331.097534,383.696411 1328.705933,375.527405 
	C1325.302612,363.902100 1321.893311,352.278473 1318.376953,340.280334 
	C1321.971313,340.280334 1325.063965,340.280334 1328.753052,340.280334 
	C1329.615845,343.633148 1330.548096,347.256104 1331.617554,351.267822 
z"/>
<path fill="#F9F9FA" opacity="1.000000" stroke="none" 
	d="
M1145.671997,403.927429 
	C1142.230103,404.191315 1139.081543,404.191315 1135.143433,404.191315 
	C1137.654297,397.868927 1139.787964,391.721466 1142.532471,385.859955 
	C1144.331421,382.018127 1144.029053,378.895050 1142.251099,375.122406 
	C1136.895630,363.758209 1131.971924,352.190552 1126.889771,340.724731 
	C1127.453125,340.383942 1127.697388,340.110229 1127.951538,340.100647 
	C1138.369873,339.708374 1138.359009,339.715729 1142.231689,349.427734 
	C1144.562500,355.273102 1146.933716,361.102356 1149.644653,367.826874 
	C1152.658325,360.376343 1155.779419,353.804230 1157.952759,346.932373 
	C1159.755127,341.234375 1162.755737,338.747406 1168.672729,339.997314 
	C1169.768066,340.228699 1170.933594,340.127777 1172.838013,340.215942 
	C1163.769653,361.626801 1154.867554,382.645172 1145.671997,403.927429 
z"/>
<path fill="#F9F9FA" opacity="1.000000" stroke="none" 
	d="
M1069.589355,340.023132 
	C1071.325317,341.203583 1073.194946,342.138611 1073.821655,343.604858 
	C1077.122803,351.327454 1080.110352,359.184143 1083.551880,367.865082 
	C1086.776123,359.924835 1089.911621,352.961121 1092.407593,345.775238 
	C1093.928345,341.397400 1096.056030,339.089813 1100.906738,339.976562 
	C1102.511353,340.269867 1104.214722,340.022766 1106.604248,340.022766 
	C1105.834106,342.071991 1105.277832,343.721436 1104.603149,345.320953 
	C1097.116943,363.072418 1089.392578,380.728546 1082.260132,398.620728 
	C1080.376831,403.344940 1078.023315,405.228699 1073.191284,404.379913 
	C1072.072021,404.183319 1070.888794,404.350922 1068.991211,404.350922 
	C1071.784180,397.368500 1074.620483,390.917328 1076.880493,384.270264 
	C1077.638428,382.041229 1077.657593,379.010040 1076.766113,376.864197 
	C1072.306519,366.130554 1067.428467,355.570862 1062.707886,344.945374 
	C1062.054688,343.474884 1061.459839,341.978363 1060.640747,340.022797 
	C1063.874634,340.022797 1066.511963,340.022797 1069.589355,340.023132 
z"/>
<path fill="#F9F9FA" opacity="1.000000" stroke="none" 
	d="
M1187.668213,382.652222 
	C1176.189575,376.668579 1171.617676,364.634552 1176.076538,352.909424 
	C1180.117310,342.283112 1190.967773,337.070435 1203.045044,339.953217 
	C1213.482422,342.444580 1219.972412,352.406830 1218.958374,364.380432 
	C1218.041504,375.206604 1209.868530,383.586365 1199.324585,383.994965 
	C1195.578857,384.140137 1191.792847,383.243622 1187.668213,382.652222 
M1205.983032,370.236450 
	C1206.466797,369.010925 1207.133423,367.824188 1207.403198,366.553223 
	C1208.703491,360.428314 1208.443726,354.499481 1203.243408,350.175598 
	C1199.763184,347.282043 1195.434326,347.120148 1191.574707,349.374359 
	C1185.701782,352.804413 1185.222778,358.630707 1185.834595,364.640228 
	C1186.320923,369.416382 1188.380493,373.427673 1193.230957,374.798004 
	C1197.965332,376.135559 1202.478149,375.393616 1205.983032,370.236450 
z"/>
<path fill="#F9F9FA" opacity="1.000000" stroke="none" 
	d="
M1426.812988,359.349365 
	C1427.084473,377.475342 1413.667358,388.162811 1397.405151,383.237000 
	C1387.464233,380.225891 1381.188965,370.390045 1382.361572,359.657654 
	C1383.667847,347.702087 1391.414185,340.013062 1402.977295,339.194122 
	C1414.240723,338.396393 1423.391602,344.859497 1426.051025,355.505554 
	C1426.332520,356.632416 1426.536255,357.778717 1426.812988,359.349365 
M1401.186157,374.939087 
	C1405.433228,375.640839 1409.467407,375.560272 1412.592407,371.949310 
	C1416.970093,366.890930 1416.986938,356.696106 1412.609741,351.564636 
	C1408.506104,346.753906 1400.416992,346.832367 1396.417114,351.789398 
	C1391.038696,358.454681 1392.785767,372.230621 1401.186157,374.939087 
z"/>
<path fill="#F9F9FA" opacity="1.000000" stroke="none" 
	d="
M888.373779,374.119324 
	C894.846375,375.968231 897.144348,375.758728 907.622559,372.418488 
	C907.766174,375.290710 907.903259,378.031281 908.046814,380.901642 
	C900.173218,384.722778 892.156067,385.381653 884.127930,382.769287 
	C872.716370,379.055969 867.095520,365.448212 871.450195,353.029785 
	C875.282837,342.100098 886.913940,336.626129 898.267700,340.408539 
	C907.357117,343.436646 911.990417,353.507751 908.877869,363.946533 
	C900.014465,363.946533 891.057556,363.946533 881.776245,363.946533 
	C881.660034,368.935760 884.210144,371.828186 888.373779,374.119324 
M890.612732,348.148224 
	C885.650452,348.812408 882.595398,351.364471 881.920166,356.595764 
	C887.760620,356.595764 893.266541,356.595764 898.977783,356.595764 
	C898.492920,351.599487 896.421936,348.530975 890.612732,348.148224 
z"/>
<path fill="#F9F9FA" opacity="1.000000" stroke="none" 
	d="
M842.256104,353.000916 
	C842.361572,356.824554 842.361572,360.245636 842.361572,363.946899 
	C832.992859,363.946899 824.036560,363.946899 815.087341,363.946899 
	C814.895203,374.760132 825.077820,378.159973 839.748901,372.466888 
	C842.595337,380.109314 841.925293,381.717987 834.157043,383.312927 
	C824.434753,385.309021 814.977295,384.875458 808.139404,376.441193 
	C802.066589,368.950531 801.495178,360.310669 805.093506,351.502930 
	C808.387329,343.440399 816.001160,338.950073 825.035828,339.352722 
	C834.088379,339.756165 839.350281,343.828552 842.256104,353.000916 
M827.242249,356.897797 
	C828.720520,356.897797 830.198730,356.897797 831.700684,356.897797 
	C831.258301,350.881836 828.759216,348.121460 824.055664,348.143524 
	C818.973755,348.167358 815.581909,351.490997 815.319946,356.897827 
	C818.988831,356.897827 822.648987,356.897827 827.242249,356.897797 
z"/>
<path fill="#FBFBFC" opacity="1.000000" stroke="none" 
	d="
M1226.040283,345.147644 
	C1226.116333,343.220398 1226.192261,341.776825 1226.274658,340.210388 
	C1229.850830,340.210388 1233.110474,340.210388 1236.979736,340.210388 
	C1236.979736,348.811310 1236.800171,357.242767 1237.033813,365.662811 
	C1237.238037,373.015289 1241.299072,376.342682 1247.940308,374.945557 
	C1251.498413,374.197052 1253.792480,372.444183 1253.686035,368.155823 
	C1253.455688,358.876526 1253.615112,349.587524 1253.615112,340.168823 
	C1257.223755,340.168823 1260.356079,340.168823 1263.866699,340.168823 
	C1263.866699,354.393768 1263.866699,368.585022 1263.866699,383.941650 
	C1260.448364,383.201813 1257.184570,382.424713 1253.887329,381.834412 
	C1253.120850,381.697174 1252.192993,382.085541 1251.419800,382.418610 
	C1239.595093,387.512146 1228.696777,382.158722 1226.847900,369.501770 
	C1225.704224,361.672729 1226.251953,353.596558 1226.040283,345.147644 
z"/>
<path fill="#FCFCFD" opacity="1.000000" stroke="none" 
	d="
M1049.240845,336.067535 
	C1048.949463,338.858978 1049.450439,340.382660 1052.362061,340.068115 
	C1054.318604,339.856781 1056.316528,340.027924 1058.608154,340.027924 
	C1058.608154,343.005066 1058.608154,345.726257 1058.608154,348.884430 
	C1055.632568,348.884430 1052.709595,348.884430 1049.386230,348.884430 
	C1049.386230,360.402161 1049.386230,371.503265 1049.386230,382.970215 
	C1045.776855,382.970215 1042.553711,382.970215 1038.772705,382.970215 
	C1038.772705,371.917206 1038.772705,360.699646 1038.772705,349.203552 
	C1036.489868,349.047485 1034.723877,348.926758 1032.647095,348.784760 
	C1032.834351,345.976105 1033.007935,343.375092 1033.199585,340.501740 
	C1034.867920,340.230469 1036.447510,339.973602 1038.365845,339.661682 
	C1039.408936,333.038757 1036.206421,324.502533 1044.070435,320.503296 
	C1048.139404,318.434021 1053.446289,318.798767 1058.871826,317.958832 
	C1058.386475,322.130066 1058.086304,324.709229 1057.789673,327.258270 
	C1050.021851,327.597107 1049.383179,328.237000 1049.240845,336.067535 
z"/>
<path fill="#F8F8F9" opacity="1.000000" stroke="none" 
	d="
M940.735962,375.166443 
	C943.538696,374.490173 945.910278,373.856262 948.725281,373.103821 
	C948.951416,375.957367 949.169250,378.706604 949.378662,381.349915 
	C940.054382,386.231628 928.067932,384.911804 921.265076,378.414124 
	C914.448486,371.903229 912.668335,359.791412 917.181152,350.627594 
	C922.064087,340.712463 938.398193,335.348022 947.340332,341.307404 
	C949.078369,342.465729 948.786926,346.669312 949.654358,350.435059 
	C942.124634,348.429810 935.483521,346.136261 930.169800,351.369354 
	C927.921448,353.583557 926.375427,357.325592 926.053650,360.528290 
	C925.090332,370.115082 930.309387,375.161804 940.735962,375.166443 
z"/>
<path fill="#F8F8F9" opacity="1.000000" stroke="none" 
	d="
M974.880432,348.979736 
	C973.114563,348.979736 971.810913,348.979736 970.083740,348.979736 
	C970.083740,356.532715 970.079590,363.803864 970.085815,371.075043 
	C970.088257,373.961731 971.556519,375.297821 974.433472,375.262726 
	C975.896851,375.244873 977.362671,375.421173 979.342407,375.540833 
	C979.139099,378.406036 978.956665,380.977509 978.744202,383.971405 
	C974.935608,383.971405 971.286316,384.345367 967.746094,383.883362 
	C962.487854,383.197205 959.282776,378.603455 959.183167,372.093689 
	C959.068787,364.619568 959.156738,357.142334 959.156738,349.330139 
	C957.132141,349.103363 955.252930,348.892853 953.106750,348.652435 
	C953.442078,345.817230 953.750183,343.212097 954.088196,340.354187 
	C955.635437,340.165314 957.200195,339.974304 959.199280,339.730255 
	C959.199280,336.720795 959.199280,333.801666 959.199280,330.542267 
	C962.869568,330.171875 966.127869,329.843079 969.811462,329.471344 
	C969.811462,332.889679 969.811462,336.145508 969.811462,339.825134 
	C973.107300,339.825134 976.028076,339.825134 979.272461,339.825134 
	C979.272461,342.843567 979.272461,345.444824 979.272461,348.659058 
	C978.120422,348.753082 976.731506,348.866394 974.880432,348.979736 
z"/>
<path fill="#F7F8F9" opacity="1.000000" stroke="none" 
	d="
M861.035278,323.199799 
	C861.040344,338.819305 861.040405,353.959747 861.054382,369.100159 
	C861.057373,372.386444 861.003296,375.746674 866.128601,375.416351 
	C865.869751,378.433990 865.647827,381.021851 865.433655,383.518646 
	C856.209534,385.310577 850.533447,381.990417 850.365662,373.865387 
	C849.988281,355.594330 850.247314,337.310181 850.247314,318.671051 
	C853.740417,318.671051 856.981873,318.671051 860.728027,318.671051 
	C860.820923,319.895508 860.928101,321.308105 861.035278,323.199799 
z"/>
<path fill="#F7F7F9" opacity="1.000000" stroke="none" 
	d="
M1473.795898,362.965576 
	C1473.802002,365.291809 1473.757812,367.125732 1473.825439,368.955505 
	C1473.949219,372.300537 1473.212646,376.278534 1478.972168,375.322144 
	C1478.542725,378.651550 1478.205200,381.268219 1477.871704,383.852783 
	C1466.902588,384.975647 1462.969727,381.480469 1462.958008,370.683807 
	C1462.940796,354.861115 1462.953369,339.038422 1462.953369,323.215729 
	C1462.953369,321.753601 1462.953369,320.291473 1462.953369,318.569977 
	C1466.616211,318.569977 1469.865723,318.569977 1473.795898,318.569977 
	C1473.795898,333.299133 1473.795898,347.885284 1473.795898,362.965576 
z"/>
<path fill="#FBFBFC" opacity="1.000000" stroke="none" 
	d="
M997.349487,354.424927 
	C997.262451,364.162811 997.262451,373.449585 997.262451,383.039246 
	C993.739197,383.039246 990.503235,383.039246 986.928223,383.039246 
	C986.928223,368.872467 986.928223,354.672180 986.928223,339.831085 
	C990.437805,341.351227 995.504944,336.967590 997.204895,343.196625 
	C1000.986572,341.641022 1004.966431,340.003906 1010.021423,337.924530 
	C1009.682007,342.721863 1009.452148,345.970551 1009.331970,347.669159 
	C1004.737061,350.104492 1001.086731,352.039154 997.349487,354.424927 
z"/>
<path fill="#F5F5F7" opacity="1.000000" stroke="none" 
	d="
M1274.276978,356.004150 
	C1274.276978,350.545166 1274.276978,345.585022 1274.276978,340.073608 
	C1278.443359,340.892609 1283.279297,337.265930 1285.229248,343.031311 
	C1289.079834,341.480652 1292.924683,339.932251 1297.865601,337.942474 
	C1297.499512,342.736755 1297.251831,345.981598 1296.972778,349.635895 
	C1295.497559,349.635895 1294.080566,349.556122 1292.675171,349.650055 
	C1287.295776,350.009674 1285.109253,352.388519 1285.101440,357.850952 
	C1285.089478,366.152496 1285.098267,374.454041 1285.098267,383.059906 
	C1281.464722,383.059906 1278.082397,383.059906 1274.276978,383.059906 
	C1274.276978,374.046783 1274.276978,365.274902 1274.276978,356.004150 
z"/>
<path fill="#F6F6F8" opacity="1.000000" stroke="none" 
	d="
M1435.625977,383.257446 
	C1434.879517,382.658081 1434.284668,382.138855 1434.282715,381.617371 
	C1434.231812,367.993164 1434.242432,354.368774 1434.242432,340.380981 
	C1437.550293,340.380981 1440.620728,340.380981 1444.001221,340.380981 
	C1444.300415,341.286530 1444.688354,342.460999 1444.922119,343.168732 
	C1448.947388,341.524750 1452.801025,339.950897 1457.767090,337.922699 
	C1457.429443,342.695740 1457.200195,345.936890 1456.939331,349.626587 
	C1455.817261,349.626587 1454.744141,349.608521 1453.671631,349.629547 
	C1447.321045,349.754028 1445.065308,352.024994 1445.061401,358.303894 
	C1445.056396,366.448639 1445.060181,374.593414 1445.060181,383.336517 
	C1441.913452,383.336517 1438.983643,383.336517 1435.625977,383.257446 
z"/>
<path fill="#F9F9FA" opacity="1.000000" stroke="none" 
	d="
M1015.094360,345.166687 
	C1015.175659,343.235687 1015.256958,341.786163 1015.345581,340.205139 
	C1018.929871,340.205139 1022.192505,340.205139 1025.713867,340.205139 
	C1025.713867,354.477234 1025.713867,368.570831 1025.713867,383.008606 
	C1022.388611,383.008606 1018.998108,383.008606 1015.094360,383.008606 
	C1015.094360,370.512024 1015.094360,358.080109 1015.094360,345.166687 
z"/>
<path fill="#F9F9FA" opacity="1.000000" stroke="none" 
	d="
M1015.227783,332.401367 
	C1015.120239,329.180023 1015.120239,326.390259 1015.120239,322.805054 
	C1016.990479,322.805054 1018.711731,322.805054 1020.432922,322.805054 
	C1022.068909,322.805054 1023.704895,322.805054 1025.656616,322.805054 
	C1025.656616,326.232635 1025.656616,329.453583 1025.656616,333.547729 
	C1022.276245,333.313599 1018.805786,333.073242 1015.227783,332.401367 
z"/>
<path fill="#141940" opacity="1.000000" stroke="none" 
	d="
M119.465408,359.620178 
	C129.207123,368.663422 138.404282,378.395569 148.799484,386.612030 
	C173.388290,406.047302 200.937164,419.514038 232.546127,422.429626 
	C275.297028,426.373016 314.162964,417.077423 345.087433,385.273254 
	C389.422485,339.676971 376.885132,260.638000 321.100098,232.704285 
	C304.845795,224.565140 287.775879,221.451019 269.395599,226.077454 
	C268.994751,225.994629 269.013855,226.011154 269.013855,226.011154 
	C278.597076,214.987549 290.868042,208.122299 304.637115,204.121643 
	C350.644196,190.754196 394.793091,212.639801 414.874329,259.003662 
	C428.475098,290.405396 429.295959,322.777191 419.036224,355.172211 
	C406.812317,393.769135 385.508545,426.122955 349.176758,445.934570 
	C294.943207,475.507874 241.660858,473.287323 190.447357,438.015594 
	C160.892990,417.660980 137.832977,391.163452 119.049301,360.369751 
	C119.134773,359.893097 119.465408,359.620178 119.465408,359.620178 
z"/>
<path fill="#141940" opacity="1.000000" stroke="none" 
	d="
M450.605438,185.402664 
	C440.105316,176.458313 430.142181,166.772079 419.003387,158.710159 
	C386.909607,135.481506 351.112915,123.464264 311.173523,127.159653 
	C271.498627,130.830566 237.663086,146.212845 215.176880,180.581436 
	C183.622818,228.809631 202.468124,295.990295 253.786591,319.860657 
	C270.152100,327.472900 287.201385,329.697174 305.353577,324.768158 
	C305.861755,324.861359 306.086792,325.076935 306.086792,325.076935 
	C292.284241,340.870209 274.565735,349.323578 254.081589,351.956818 
	C204.398804,358.343536 168.728790,325.616730 154.803055,286.717590 
	C139.393768,243.674377 145.532211,202.508026 166.729614,162.952072 
	C190.215469,119.125679 227.676483,94.649658 275.876923,86.417862 
	C309.563293,80.664818 341.045807,88.637085 370.267395,105.850449 
	C403.483795,125.416962 429.526703,152.448166 450.974792,184.609558 
	C450.912903,185.093094 450.605438,185.402664 450.605438,185.402664 
z"/>
<path fill="#141940" opacity="1.000000" stroke="none" 
	d="
M334.032471,256.962219 
	C349.742279,270.568848 358.136841,288.086304 361.017883,308.359711 
	C367.456299,353.666138 340.328186,391.737366 297.133484,407.953979 
	C255.074814,423.744080 214.359283,418.258331 175.088791,398.071167 
	C129.127960,374.444733 103.393951,336.038208 95.359695,285.740997 
	C89.696106,250.284866 99.267830,217.719757 118.168678,187.726517 
	C137.291702,157.380722 162.697388,133.158524 192.659119,113.090958 
	C193.313995,113.335320 193.451569,113.468132 193.589127,113.600937 
	C183.679779,125.678772 172.819733,137.108322 164.052597,149.965042 
	C143.779282,179.695221 133.344727,212.707123 136.104507,249.002014 
	C139.181229,289.465179 154.073425,324.180389 188.884384,347.466156 
	C234.997986,378.312469 299.280823,363.027405 326.065887,315.241943 
	C336.109772,297.323334 339.683289,278.199677 333.851807,257.515869 
	C333.938904,257.062286 334.032471,256.962219 334.032471,256.962219 
z"/>
<path fill="#141940" opacity="1.000000" stroke="none" 
	d="
M234.921387,294.087921 
	C221.705948,282.074036 214.263641,266.814911 211.093430,249.575500 
	C203.457993,208.054520 223.958344,169.188614 263.027771,150.790955 
	C303.337463,131.809265 343.770172,133.699814 383.798248,151.457001 
	C413.901031,164.811157 438.895691,184.483658 455.106720,213.820877 
	C470.026764,240.821671 477.579437,269.680695 474.851807,300.670197 
	C472.628113,325.934235 463.368103,348.810944 449.329834,369.744781 
	C429.053986,399.980103 402.565277,423.744537 371.376282,442.944763 
	C370.685516,442.672089 370.535248,442.529083 370.385010,442.386047 
	C380.608582,430.785156 391.681305,419.816193 400.881317,407.453583 
	C420.864075,380.601593 432.336945,350.272797 432.605774,316.519012 
	C432.905212,278.915527 422.279449,245.131744 394.634918,218.251312 
	C348.050598,172.954544 267.372437,186.871094 240.650131,244.761810 
	C233.552597,260.137787 230.795410,276.147949 235.193130,293.394073 
	C235.105103,293.898132 234.921387,294.087921 234.921387,294.087921 
z"/>
<path fill="#141940" opacity="1.000000" stroke="none" 
	d="
M118.970230,360.030518 
	C118.485947,359.646423 118.166214,359.124908 117.923676,358.301270 
	C118.000877,357.999115 117.996330,358.004486 117.996330,358.004486 
	C118.404228,358.373077 118.812126,358.741638 119.342712,359.365204 
	C119.465408,359.620178 119.134773,359.893097 118.970230,360.030518 
z"/>
<path fill="#141940" opacity="1.000000" stroke="none" 
	d="
M192.986694,112.987404 
	C193.230896,112.432846 193.664810,112.093384 194.489807,111.816360 
	C194.880890,111.878784 195.110321,112.099541 195.110321,112.099541 
	C194.760361,112.513412 194.410400,112.927292 193.824799,113.471054 
	C193.451569,113.468132 193.313995,113.335320 192.986694,112.987404 
z"/>
<path fill="#141940" opacity="1.000000" stroke="none" 
	d="
M368.802704,443.809021 
	C369.172699,443.416473 369.542725,443.023956 370.148865,442.508728 
	C370.535248,442.529083 370.685516,442.672089 371.044434,443.047241 
	C370.819519,443.612732 370.385986,443.946106 369.531342,444.194702 
	C369.110229,444.109955 368.802704,443.809021 368.802704,443.809021 
z"/>
<path fill="#141940" opacity="1.000000" stroke="none" 
	d="
M268.984985,225.984894 
	C268.893829,226.185760 268.812439,226.396378 268.731049,226.607010 
	C268.700958,226.438461 268.670898,226.269897 268.827332,226.056244 
	C269.013855,226.011154 268.994751,225.994629 268.984985,225.984894 
z"/>
<path fill="#141940" opacity="1.000000" stroke="none" 
	d="
M333.892029,257.112274 
	C333.664185,257.002625 333.483215,256.843018 333.302216,256.683380 
	C333.500549,256.647583 333.698914,256.611816 333.964844,256.769104 
	C334.032471,256.962219 333.938904,257.062286 333.892029,257.112274 
z"/>
<path fill="#141940" opacity="1.000000" stroke="none" 
	d="
M235.197662,293.803894 
	C235.437408,293.935608 235.584579,294.161530 235.731750,294.387482 
	C235.513885,294.419556 235.296021,294.451630 234.999771,294.285797 
	C234.921387,294.087921 235.105103,293.898132 235.197662,293.803894 
z"/>
<path fill="#141940" opacity="1.000000" stroke="none" 
	d="
M305.750488,324.752289 
	C305.883362,324.506073 306.127472,324.368927 306.371643,324.231781 
	C306.410004,324.455750 306.448364,324.679718 306.286743,324.990295 
	C306.086792,325.076935 305.861755,324.861359 305.750488,324.752289 
z"/>
<path fill="#141940" opacity="1.000000" stroke="none" 
	d="
M118.005539,357.994202 
	C117.773735,357.894684 117.537270,357.800018 117.300812,357.705353 
	C117.495834,357.662598 117.690865,357.619873 117.941116,357.790833 
	C117.996330,358.004486 118.000877,357.999115 118.005539,357.994202 
z"/>
<path fill="#141940" opacity="1.000000" stroke="none" 
	d="
M452.656921,187.274536 
	C452.684296,187.482956 452.605804,187.561996 452.527313,187.641052 
	C452.456848,187.554886 452.328156,187.465851 452.332214,187.383347 
	C452.336273,187.300568 452.472687,187.224289 452.656921,187.274536 
z"/>
<path fill="#141940" opacity="1.000000" stroke="none" 
	d="
M451.068970,184.940674 
	C451.359924,185.111420 451.494781,185.434601 451.629608,185.757797 
	C451.402344,185.768311 451.175110,185.778824 450.776642,185.596008 
	C450.605438,185.402664 450.912903,185.093094 451.068970,184.940674 
z"/>
<path fill="#141940" opacity="1.000000" stroke="none" 
	d="
M194.767273,111.767281 
	C194.934631,111.746681 195.215591,111.837585 195.303436,112.014015 
	C195.110321,112.099541 194.880890,111.878784 194.767273,111.767281 
z"/>
<path fill="#141940" opacity="1.000000" stroke="none" 
	d="
M369.261536,444.262878 
	C369.137817,444.618500 368.862793,444.821136 368.280579,445.000732 
	C367.973328,444.977661 367.872711,444.877319 367.872711,444.877319 
	C368.028046,444.590729 368.183380,444.304138 368.570709,443.913269 
	C368.802704,443.809021 369.110229,444.109955 369.261536,444.262878 
z"/>
<path fill="#141940" opacity="1.000000" stroke="none" 
	d="
M368.022278,445.029144 
	C367.882599,445.276428 367.693939,445.472198 367.505280,445.667999 
	C367.487488,445.443268 367.469696,445.218506 367.662292,444.935547 
	C367.872711,444.877319 367.973328,444.977661 368.022278,445.029144 
z"/>
<path fill="#141940" opacity="1.000000" stroke="none" 
	d="
M365.653503,446.614075 
	C365.542084,446.692139 365.466736,446.416321 365.466736,446.416321 
	C365.466736,446.416321 365.764893,446.536041 365.653503,446.614075 
z"/>
<path fill="#151B41" opacity="1.000000" stroke="none" 
	d="
M1082.005127,209.375275 
	C1094.446045,207.333069 1100.751221,211.626541 1102.956177,223.580185 
	C1104.753296,233.321884 1104.904419,243.110779 1101.973389,252.689133 
	C1099.609131,260.414856 1094.791016,264.039368 1087.546387,264.070343 
	C1080.142456,264.102051 1075.224121,260.729309 1072.842285,253.048492 
	C1069.416260,242.000641 1069.496704,230.792862 1072.787231,219.689240 
	C1074.166260,215.036209 1076.921753,211.394272 1082.005127,209.375275 
z"/>
<path fill="#161C41" opacity="1.000000" stroke="none" 
	d="
M1292.815918,215.365280 
	C1298.485962,228.345947 1298.336792,241.258606 1294.202637,254.125412 
	C1291.983032,261.033051 1287.151611,264.052795 1280.302124,264.062195 
	C1273.398926,264.071655 1268.460083,261.070770 1266.142334,254.384964 
	C1262.046143,242.568832 1261.820557,230.440338 1266.075073,218.692230 
	C1270.482422,206.522034 1284.609619,204.793976 1292.815918,215.365280 
z"/>
<path fill="#151B41" opacity="1.000000" stroke="none" 
	d="
M1484.002930,227.034988 
	C1478.866211,227.034988 1474.227051,227.034988 1469.581787,227.034988 
	C1469.962524,215.738556 1476.331543,208.434509 1485.483765,208.579803 
	C1493.783325,208.711563 1498.171631,214.857162 1498.244385,227.034988 
	C1493.668091,227.034988 1489.084229,227.034988 1484.002930,227.034988 
z"/>
<path fill="#161C41" opacity="1.000000" stroke="none" 
	d="
M624.966675,227.036255 
	C617.511292,227.036255 610.553711,227.036255 603.587341,227.036255 
	C604.070984,215.632629 610.339172,208.459717 619.505249,208.583771 
	C627.798401,208.695984 632.163452,214.823776 632.228699,227.036255 
	C629.977905,227.036255 627.721191,227.036255 624.966675,227.036255 
z"/>
<path fill="#171D42" opacity="1.000000" stroke="none" 
	d="
M781.978455,214.172775 
	C783.316833,218.430130 784.500244,222.340088 785.839844,226.765961 
	C775.281372,226.765961 765.697021,226.765961 756.109924,226.765961 
	C756.154602,218.809235 760.359070,211.707489 766.330444,209.462845 
	C772.214294,207.251053 777.687988,208.792343 781.978455,214.172775 
z"/>
<path fill="#171D43" opacity="1.000000" stroke="none" 
	d="
M1514.381714,359.562286 
	C1514.128906,362.907776 1514.229736,365.962097 1513.440308,368.765717 
	C1512.386108,372.509979 1509.780762,374.943573 1505.584595,375.257751 
	C1501.431396,375.568787 1497.956421,374.399292 1495.934326,370.605438 
	C1492.844116,364.807831 1492.802856,358.801941 1495.937744,353.050293 
	C1498.163208,348.967041 1502.009521,347.477112 1506.514038,348.449341 
	C1512.173950,349.670929 1513.883789,354.012634 1514.381714,359.562286 
z"/>
<path fill="#171D42" opacity="1.000000" stroke="none" 
	d="
M1205.791992,370.577759 
	C1202.478149,375.393616 1197.965332,376.135559 1193.230957,374.798004 
	C1188.380493,373.427673 1186.320923,369.416382 1185.834595,364.640228 
	C1185.222778,358.630707 1185.701782,352.804413 1191.574707,349.374359 
	C1195.434326,347.120148 1199.763184,347.282043 1203.243408,350.175598 
	C1208.443726,354.499481 1208.703491,360.428314 1207.403198,366.553223 
	C1207.133423,367.824188 1206.466797,369.010925 1205.791992,370.577759 
z"/>
<path fill="#181E43" opacity="1.000000" stroke="none" 
	d="
M1400.792480,374.821716 
	C1392.785767,372.230621 1391.038696,358.454681 1396.417114,351.789398 
	C1400.416992,346.832367 1408.506104,346.753906 1412.609741,351.564636 
	C1416.986938,356.696106 1416.970093,366.890930 1412.592407,371.949310 
	C1409.467407,375.560272 1405.433228,375.640839 1400.792480,374.821716 
z"/>
<path fill="#21274B" opacity="1.000000" stroke="none" 
	d="
M891.001953,348.143799 
	C896.421936,348.530975 898.492920,351.599487 898.977783,356.595764 
	C893.266541,356.595764 887.760620,356.595764 881.920166,356.595764 
	C882.595398,351.364471 885.650452,348.812408 891.001953,348.143799 
z"/>
<path fill="#21274B" opacity="1.000000" stroke="none" 
	d="
M826.775757,356.897827 
	C822.648987,356.897827 818.988831,356.897827 815.319946,356.897827 
	C815.581909,351.490997 818.973755,348.167358 824.055664,348.143524 
	C828.759216,348.121460 831.258301,350.881836 831.700684,356.897797 
	C830.198730,356.897797 828.720520,356.897797 826.775757,356.897827 
z"/>
</svg>