<svg version="1.1" id="Layer_1" xmlns="http://www.w3.org/2000/svg" xmlns:xlink="http://www.w3.org/1999/xlink" x="0px" y="0px"
	 width="100%" viewBox="0 0 1520 400" enable-background="new 0 0 1520 400" xml:space="preserve">
<path fill="#13193F" opacity="1.000000" stroke="none" 
	d="
M1004.000000,401.000000 
	C669.376831,401.000000 335.253632,401.000000 1.065221,401.000000 
	C1.065221,267.727539 1.065221,134.455002 1.065221,1.091245 
	C507.666656,1.091245 1014.333313,1.091245 1520.966187,1.091245 
	C1520.966187,134.413116 1520.966187,267.706573 1520.966187,401.000000 
	C1348.788208,401.000000 1176.644165,401.000000 1004.000000,401.000000 
M363.038025,351.004395 
	C365.870728,350.979950 368.703430,350.940002 371.536163,350.934021 
	C378.891998,350.918549 378.897217,350.924530 378.897278,343.480499 
	C378.898438,236.984238 378.898376,130.487976 378.897430,23.991720 
	C378.897369,17.006229 378.893036,17.003077 371.837677,17.003031 
	C265.341431,17.002350 158.845154,17.002552 52.348904,17.002651 
	C51.348938,17.002653 50.339012,17.095551 49.350849,16.987944 
	C46.179367,16.642580 44.812195,17.830318 44.949543,21.189341 
	C45.119289,25.340815 44.843349,29.510513 43.860088,33.763809 
	C38.895546,33.763809 33.931004,33.763809 28.614841,33.763809 
	C28.614841,145.082932 28.614841,255.806183 28.614841,366.831116 
	C139.769302,366.831116 250.641129,366.831116 362.128174,366.831116 
	C362.128174,361.359680 362.128174,356.233276 363.038025,351.004395 
M1205.522705,170.933990 
	C1191.357300,176.374313 1182.979370,186.942993 1179.027588,201.243881 
	C1175.183960,215.153336 1175.073975,229.275253 1178.238770,243.264236 
	C1182.342773,261.404266 1192.704346,274.420898 1211.488892,278.422577 
	C1219.491577,280.127411 1228.098267,280.413025 1236.268188,279.636902 
	C1256.213257,277.742096 1269.944946,265.355225 1274.984619,246.048630 
	C1278.580933,232.271255 1278.796143,218.334457 1275.777466,204.496048 
	C1271.899292,186.716965 1261.891846,173.974991 1243.660156,169.377060 
	C1231.188599,166.231796 1218.598511,166.468552 1205.522705,170.933990 
M957.160767,201.754730 
	C956.482666,212.829468 954.553650,224.001511 955.405945,234.957199 
	C956.852173,253.548294 964.684143,268.985138 983.218811,276.494904 
	C994.311829,280.989532 1005.958740,281.168152 1017.621094,279.235687 
	C1035.646606,276.248932 1047.137573,265.569824 1052.588379,248.389175 
	C1054.134399,243.516205 1054.980225,238.348114 1055.536011,233.248749 
	C1056.772705,221.903671 1056.112427,210.609131 1052.857910,199.619507 
	C1046.810303,179.197525 1031.968872,168.711365 1007.666443,167.433853 
	C982.245239,166.097549 964.901123,177.669632 957.160767,201.754730 
M455.875305,168.241150 
	C438.786041,171.576752 426.036407,180.384079 420.552856,197.493073 
	C415.188141,214.231216 414.868164,231.288849 420.130432,248.091965 
	C424.438965,261.849792 433.312164,272.000793 447.259521,276.630066 
	C464.642578,282.399689 482.053009,281.509125 499.046448,274.860443 
	C509.692230,270.695282 511.129639,265.784698 505.265289,256.074738 
	C504.921997,255.506378 504.550842,254.953827 504.172882,254.407562 
	C500.382965,248.930679 499.219055,248.514801 493.114960,250.955215 
	C484.197052,254.520584 475.182220,256.970184 465.416473,255.049301 
	C454.843750,252.969696 448.280182,244.550186 449.438660,233.822571 
	C465.871246,233.822571 482.339264,233.946640 498.801422,233.692368 
	C501.349640,233.653015 504.293610,232.412643 506.321289,230.803619 
	C511.299744,226.853058 513.867065,221.689880 512.470032,214.996124 
	C511.691193,211.264130 511.716919,207.360199 510.888763,203.643188 
	C506.901337,185.746964 497.652618,172.241180 478.575195,168.600189 
	C471.520264,167.253738 464.026276,168.207687 455.875305,168.241150 
M1499.032959,272.556183 
	C1504.599609,268.457916 1505.405029,265.862488 1502.636230,259.861908 
	C1501.597656,257.611084 1500.225342,255.497467 1498.855103,253.420273 
	C1496.458496,249.787247 1493.686035,248.557541 1489.165527,250.574600 
	C1480.766113,254.322571 1472.018921,256.862457 1462.532715,255.290787 
	C1450.677490,253.326614 1444.652100,246.495209 1444.380737,233.822159 
	C1446.025269,233.822159 1447.663940,233.822174 1449.302612,233.822174 
	C1464.135254,233.822174 1478.971680,233.995026 1493.797241,233.670334 
	C1496.623657,233.608429 1499.829956,232.125702 1502.120972,230.345840 
	C1506.684448,226.800415 1509.033691,221.961060 1507.994629,215.878860 
	C1507.490967,212.930511 1507.390625,209.915421 1506.955078,206.952972 
	C1503.924072,186.340775 1492.284424,172.175217 1474.299805,168.691040 
	C1467.400269,167.354385 1459.965576,167.307800 1452.972900,168.209930 
	C1434.407593,170.605026 1421.041992,180.336060 1415.488403,198.738312 
	C1410.674194,214.690842 1410.312134,230.979889 1415.144287,247.014801 
	C1419.350952,260.973938 1427.909058,271.610138 1442.085327,276.367218 
	C1461.202637,282.782349 1480.085083,281.633026 1499.032959,272.556183 
M653.499939,233.822388 
	C660.495056,233.822327 667.503113,234.064346 674.478088,233.689636 
	C676.886475,233.560257 679.578979,232.361053 681.504578,230.842560 
	C686.509094,226.896027 689.053589,221.713943 687.834473,215.078232 
	C687.053833,210.829071 686.837769,206.457550 685.822632,202.273346 
	C681.629761,184.992233 672.277649,172.140350 653.899170,168.602478 
	C647.161316,167.305405 639.907715,167.331253 633.067383,168.183151 
	C614.273071,170.523773 600.858826,180.364197 595.245972,198.929703 
	C590.782654,213.692932 590.372559,228.855316 594.104797,243.844803 
	C598.723633,262.395233 610.203613,274.511414 629.232422,278.578735 
	C643.883789,281.710358 658.392639,280.765717 672.481995,275.600922 
	C685.633850,270.779785 687.198303,264.853973 678.845886,253.512222 
	C676.095764,249.777817 673.356873,248.583679 668.702515,250.697403 
	C659.828857,254.727249 650.529724,257.035217 640.580078,255.043411 
	C630.110596,252.947510 623.455688,244.399033 624.604187,233.822388 
	C633.882324,233.822388 643.191101,233.822388 653.499939,233.822388 
M1308.487305,170.898346 
	C1306.867065,171.248688 1305.227539,171.527847 1303.630005,171.961761 
	C1297.042725,173.750946 1296.925171,174.448059 1297.687012,181.382736 
	C1298.666992,190.302429 1299.503784,199.280151 1299.625000,208.243378 
	C1299.904663,228.890076 1299.812988,249.543945 1299.643555,270.193024 
	C1299.602905,275.137024 1301.636475,277.929871 1306.346680,278.311768 
	C1311.629883,278.740143 1316.997925,279.058044 1322.258301,278.603668 
	C1329.126831,278.010376 1330.678101,275.838562 1330.682251,268.868652 
	C1330.693726,249.217392 1330.683228,229.566132 1330.688110,209.914871 
	C1330.690308,200.810440 1338.276489,193.081070 1347.277100,192.995529 
	C1356.546387,192.907440 1359.962280,197.228683 1359.966675,209.094864 
	C1359.974365,229.578812 1360.043823,250.063232 1359.911133,270.546326 
	C1359.882202,275.011292 1361.709961,277.866577 1365.984985,278.109100 
	C1372.405029,278.473297 1378.882202,278.393707 1385.301514,277.980957 
	C1388.779541,277.757355 1390.962280,275.419220 1390.954712,271.579742 
	C1390.905396,246.600052 1391.447876,221.602081 1390.656372,196.646240 
	C1389.985229,175.485703 1377.407349,165.582321 1356.311157,167.655350 
	C1345.222290,168.744980 1336.809692,174.588760 1329.343872,182.412643 
	C1328.978516,181.878891 1328.575928,181.523727 1328.463379,181.092804 
	C1325.186279,168.548096 1325.312134,169.272888 1311.787231,170.243378 
	C1310.966064,170.302307 1310.160889,170.585831 1308.487305,170.898346 
M1086.559814,278.674988 
	C1106.213623,278.674988 1125.867554,278.674957 1145.521362,278.674957 
	C1161.005737,278.674957 1162.496582,277.008087 1161.027222,261.338531 
	C1160.509399,255.816422 1158.662964,254.061981 1153.057983,254.043243 
	C1140.899414,254.002563 1128.740479,254.040771 1116.581787,254.014557 
	C1115.376343,254.011963 1114.171387,253.787598 1112.524780,253.621689 
	C1113.445923,252.323074 1114.005615,251.520111 1114.579346,250.727295 
	C1129.114380,230.643188 1143.662598,210.568542 1158.178345,190.470505 
	C1161.433105,185.963989 1159.572632,172.861938 1155.188843,169.734848 
	C1154.352051,169.137955 1153.028809,169.025406 1151.929443,169.023651 
	C1128.278198,168.985947 1104.626465,168.936646 1080.976562,169.111206 
	C1079.123535,169.124863 1075.771973,170.635483 1075.682983,171.670746 
	C1075.141357,177.979660 1074.196045,184.632248 1075.656494,190.615784 
	C1076.837280,195.452988 1082.817993,193.402039 1086.761841,193.500534 
	C1095.583862,193.720886 1104.415283,193.558044 1113.242798,193.580078 
	C1114.827759,193.584030 1116.412354,193.726181 1118.708008,193.839645 
	C1117.343018,195.869705 1116.407959,197.357895 1115.378174,198.777390 
	C1101.600464,217.768585 1088.032227,236.918243 1073.905884,255.646805 
	C1068.657715,262.604797 1071.199097,268.728729 1073.755493,275.238342 
	C1076.045044,281.068481 1081.214844,277.826141 1085.088013,278.670502 
	C1085.246948,278.705170 1085.420166,278.674927 1086.559814,278.674988 
M740.806763,169.140594 
	C723.867737,172.965256 712.763184,183.178162 708.029297,199.861038 
	C703.528259,215.723389 703.472473,231.772934 707.709839,247.718124 
	C712.015625,263.920502 722.343506,274.212982 738.736389,278.173737 
	C753.357117,281.706329 767.837524,280.849487 782.041138,276.143707 
	C795.800171,271.585175 797.542114,265.254822 788.796875,253.631683 
	C786.071106,250.008881 783.354004,249.375977 778.962402,250.930054 
	C772.771240,253.120972 766.253296,255.128540 759.762817,255.572128 
	C748.049805,256.372620 740.146301,250.543564 738.420654,239.059845 
	C737.032532,229.822617 736.822632,220.095123 738.063293,210.849960 
	C739.892578,197.218536 747.533569,191.271759 761.104309,192.097183 
	C767.210876,192.468597 773.145508,195.286163 779.225952,196.702530 
	C781.041321,197.125381 783.868774,197.340317 784.890503,196.314224 
	C789.229614,191.956589 793.804688,187.014175 792.861755,180.435532 
	C791.954285,174.103958 785.752197,172.606674 780.593933,170.870544 
	C767.814575,166.569382 754.772095,166.571945 740.806763,169.140594 
M549.987610,277.731415 
	C556.367676,278.524597 562.762390,280.078522 569.124817,279.956116 
	C583.340576,279.682556 587.089539,273.546753 582.308411,260.267731 
	C580.837341,256.182129 578.942261,254.340332 574.251770,255.339050 
	C568.132812,256.641876 565.253479,253.964203 564.970947,247.631226 
	C564.896790,245.969299 564.931030,244.302109 564.930908,242.637344 
	C564.928955,205.177414 564.934021,167.717484 564.924011,130.257553 
	C564.922424,124.222107 563.282837,121.605568 558.076416,121.183380 
	C552.298584,120.714851 546.421692,120.742088 540.644409,121.226448 
	C536.164917,121.602005 533.768372,124.293404 533.833862,129.335968 
	C534.043579,145.482651 533.903015,161.633743 533.912903,177.783142 
	C533.927551,201.757294 533.738525,225.734451 534.070496,249.704315 
	C534.232117,261.376709 537.737366,271.724548 549.987610,277.731415 
M844.850220,248.102310 
	C844.850220,230.011124 844.850220,211.919937 844.850220,193.880157 
	C860.058228,192.611862 860.837402,192.393677 860.890747,185.914124 
	C860.930969,181.026474 861.617676,174.637955 858.952454,171.656219 
	C856.267029,168.651779 849.799561,169.027878 844.777649,167.874191 
	C844.777649,162.473129 844.843872,156.646622 844.758362,150.822372 
	C844.677917,145.344986 842.869629,143.245117 837.345703,142.873276 
	C832.880432,142.572678 828.363098,142.658585 823.891785,142.938354 
	C819.063293,143.240463 816.497498,146.012955 815.974243,150.928299 
	C815.343567,156.854141 814.402466,162.746948 813.606689,168.573715 
	C805.913879,169.588013 804.463135,170.987701 804.054993,177.546310 
	C803.285461,189.911896 804.390137,191.927719 813.622925,194.396683 
	C813.622925,196.077896 813.612915,197.881866 813.624451,199.685699 
	C813.738098,217.497757 813.447327,235.324738 814.098450,253.117203 
	C814.637207,267.839325 823.072693,277.378876 836.548279,279.677917 
	C840.602905,280.369659 844.852722,280.250854 848.991699,280.053680 
	C863.199219,279.376801 867.023560,273.357605 862.040894,260.217041 
	C860.525940,256.221680 858.593079,254.318634 853.895081,255.368927 
	C848.297913,256.620239 846.188293,254.786667 844.850220,248.102310 
M891.980713,278.886505 
	C896.630554,278.758240 901.334534,279.026978 905.916870,278.403107 
	C911.900391,277.588409 913.118469,275.796936 913.123047,269.777527 
	C913.138550,249.466797 913.027344,229.154907 913.258484,208.846786 
	C913.287292,206.314056 914.547485,203.380005 916.151794,201.357285 
	C921.259399,194.917389 928.145386,193.382187 935.886230,195.631699 
	C939.783203,196.764145 942.600159,195.831512 943.517700,191.757690 
	C944.603455,186.936661 945.816223,182.033707 945.949890,177.138321 
	C946.097961,171.714752 942.807373,168.580231 937.501526,167.738083 
	C928.141846,166.252487 920.952820,169.866821 915.457092,177.318649 
	C914.234863,178.975967 913.035339,180.650024 911.503418,182.759720 
	C910.833252,180.187363 910.427551,178.409927 909.905823,176.667221 
	C908.060730,170.504181 906.743347,169.350418 900.280518,169.917450 
	C895.013550,170.379578 889.784912,171.421082 884.582153,172.427155 
	C880.639221,173.189606 879.415100,175.617477 879.940613,179.720291 
	C880.952576,187.621811 881.905334,195.587051 882.012024,203.537567 
	C882.300110,225.009857 882.131226,246.488281 882.143616,267.964264 
	C882.148438,276.236298 882.836182,277.069763 891.980713,278.886505 
z"/>
<path fill="#A24392" opacity="1.000000" stroke="none" 
	d="
M362.128174,351.106873 
	C362.128174,356.233276 362.128174,361.359680 362.128174,366.831116 
	C250.641129,366.831116 139.769302,366.831116 28.614841,366.831116 
	C28.614841,255.806183 28.614841,145.082932 28.614841,33.763809 
	C33.931004,33.763809 38.895546,33.763809 44.793549,33.794098 
	C47.892483,33.857330 50.057957,33.918987 52.223431,33.919086 
	C153.044189,33.923832 253.864944,33.923042 354.685699,33.923584 
	C362.007294,33.923626 362.010254,33.926064 362.010315,41.150032 
	C362.010956,142.137436 362.009979,243.124832 362.015656,344.112244 
	C362.015808,346.443787 362.089050,348.775330 362.128174,351.106873 
M128.057510,85.720215 
	C127.632988,86.066498 127.208473,86.412773 126.132721,86.966797 
	C106.845528,100.747627 90.010262,116.946365 77.231384,137.056091 
	C63.484123,158.689728 56.196102,182.156647 60.367432,207.836334 
	C66.804161,247.462311 88.334198,276.000916 125.610649,291.770844 
	C157.344910,305.196136 188.859833,305.590424 219.029724,287.354675 
	C252.482773,267.134491 260.435791,223.984726 236.824814,193.717072 
	C235.349289,191.825546 234.088440,189.766541 232.727722,187.785446 
	C232.181870,188.271210 231.636002,188.756973 231.090149,189.242737 
	C231.090149,190.040497 230.974884,190.857910 231.106934,191.633179 
	C234.833664,213.513519 227.284698,231.626068 211.070282,245.692123 
	C177.635117,274.697235 127.995789,267.020752 104.639099,228.908936 
	C82.746284,193.185776 83.994728,156.322220 103.932838,120.245781 
	C110.384392,108.572182 119.645775,98.451469 128.099884,87.383324 
	C128.462234,86.980072 128.824585,86.576820 129.560913,85.942291 
	C129.240234,85.821899 128.919540,85.701500 128.057510,85.720215 
M209.135178,235.831818 
	C191.582367,239.790466 175.744858,235.791626 161.568451,225.111755 
	C125.450081,197.901764 125.913116,141.777130 163.022064,114.131973 
	C193.405243,91.497345 227.040787,89.023438 262.048187,101.694946 
	C281.109985,108.594681 297.335236,120.157990 311.858002,134.424484 
	C311.617493,132.950607 311.177032,131.597946 310.381622,130.503189 
	C296.050385,110.779419 279.145325,93.794632 258.325043,80.807213 
	C208.028503,49.432938 151.894073,67.755699 124.362015,101.240875 
	C100.632957,130.100754 90.858170,163.104660 100.109970,200.148224 
	C108.058899,231.975174 134.345322,259.696716 173.268127,254.945358 
	C187.714874,253.181839 200.442978,247.518890 210.385696,235.912064 
	C210.357101,235.732330 210.328491,235.552582 210.299911,235.372864 
	C210.193573,235.575378 210.087219,235.777908 209.135178,235.831818 
M258.813721,318.999023 
	C277.172302,307.190430 293.467163,293.085754 306.788849,275.705139 
	C320.345398,258.018097 330.175262,238.467926 330.781219,215.938065 
	C331.931488,173.168106 314.732758,139.625641 277.173370,117.921227 
	C248.153244,101.151405 217.499695,96.612762 185.577255,109.060944 
	C151.987762,122.159180 135.309647,153.809860 144.059814,187.245697 
	C146.709793,197.371735 151.863083,206.101501 159.721176,213.908173 
	C159.823685,212.675812 159.976944,212.173813 159.887161,211.719894 
	C155.791779,191.015976 162.679779,173.577759 177.452408,159.693527 
	C209.432404,129.636780 259.507233,135.164841 283.736633,171.774124 
	C306.475311,206.130966 305.801483,242.214706 287.957764,278.530060 
	C280.447601,293.814606 269.474426,306.532471 257.060425,318.694092 
	C256.931854,319.018646 256.803284,319.343170 256.674744,319.667725 
	C257.163910,319.500916 257.653076,319.334076 258.813721,318.999023 
M292.620117,202.022537 
	C289.907532,191.412308 285.382904,181.658600 278.849548,172.850830 
	C257.790985,144.461334 218.456360,138.386993 190.513535,159.257309 
	C188.555847,160.719482 186.862320,162.535339 185.045944,164.186752 
	C196.760788,162.602051 207.509018,163.927338 217.842850,168.446060 
	C262.396606,187.928268 271.392548,250.835785 234.127762,282.849701 
	C208.692139,304.701263 179.021271,309.942719 147.027451,303.319580 
	C121.606812,298.057159 100.894806,284.006073 82.755188,265.871979 
	C81.617844,264.734955 80.259262,263.819244 79.003601,262.800598 
	C90.760696,282.293579 105.242355,299.104340 123.208054,312.793732 
	C165.628525,345.116974 214.033722,343.848602 251.800720,314.559906 
	C287.785217,286.653534 301.929260,248.431824 292.620117,202.022537 
M230.536728,187.360901 
	C230.536728,187.360901 230.373444,187.710495 230.373444,187.710495 
	C230.373444,187.710495 230.717712,187.637390 230.536728,187.360901 
M183.599197,165.448654 
	C183.599197,165.448654 183.660767,165.522003 183.599197,165.448654 
z"/>
<path fill="#5B2E69" opacity="1.000000" stroke="none" 
	d="
M362.583099,351.055634 
	C362.089050,348.775330 362.015808,346.443787 362.015656,344.112244 
	C362.009979,243.124832 362.010956,142.137436 362.010315,41.150032 
	C362.010254,33.926064 362.007294,33.923626 354.685699,33.923584 
	C253.864944,33.923042 153.044189,33.923832 52.223431,33.919086 
	C50.057957,33.918987 47.892483,33.857330 45.243492,33.748360 
	C44.843349,29.510513 45.119289,25.340815 44.949543,21.189341 
	C44.812195,17.830318 46.179367,16.642580 49.350849,16.987944 
	C50.339012,17.095551 51.348938,17.002653 52.348904,17.002651 
	C158.845154,17.002552 265.341431,17.002350 371.837677,17.003031 
	C378.893036,17.003077 378.897369,17.006229 378.897430,23.991720 
	C378.898376,130.487976 378.898438,236.984238 378.897278,343.480499 
	C378.897217,350.924530 378.891998,350.918549 371.536163,350.934021 
	C368.703430,350.940002 365.870728,350.979950 362.583099,351.055634 
z"/>
<path fill="#FDFDFD" opacity="1.000000" stroke="none" 
	d="
M1205.896729,170.820160 
	C1218.598511,166.468552 1231.188599,166.231796 1243.660156,169.377060 
	C1261.891846,173.974991 1271.899292,186.716965 1275.777466,204.496048 
	C1278.796143,218.334457 1278.580933,232.271255 1274.984619,246.048630 
	C1269.944946,265.355225 1256.213257,277.742096 1236.268188,279.636902 
	C1228.098267,280.413025 1219.491577,280.127411 1211.488892,278.422577 
	C1192.704346,274.420898 1182.342773,261.404266 1178.238770,243.264236 
	C1175.073975,229.275253 1175.183960,215.153336 1179.027588,201.243881 
	C1182.979370,186.942993 1191.357300,176.374313 1205.896729,170.820160 
M1237.968262,195.412094 
	C1226.632568,187.913742 1214.139282,191.961136 1210.138184,204.955994 
	C1206.340210,217.291733 1206.472534,229.927292 1210.035400,242.336761 
	C1212.612915,251.313889 1218.605469,255.747940 1227.006592,255.763687 
	C1235.390259,255.779388 1241.367798,251.308105 1243.881836,242.254501 
	C1247.283936,230.002838 1247.316772,217.563599 1243.836670,205.329529 
	C1242.879028,201.962860 1240.328491,199.049240 1237.968262,195.412094 
z"/>
<path fill="#FDFDFD" opacity="1.000000" stroke="none" 
	d="
M957.276428,201.365967 
	C964.901123,177.669632 982.245239,166.097549 1007.666443,167.433853 
	C1031.968872,168.711365 1046.810303,179.197525 1052.857910,199.619507 
	C1056.112427,210.609131 1056.772705,221.903671 1055.536011,233.248749 
	C1054.980225,238.348114 1054.134399,243.516205 1052.588379,248.389175 
	C1047.137573,265.569824 1035.646606,276.248932 1017.621094,279.235687 
	C1005.958740,281.168152 994.311829,280.989532 983.218811,276.494904 
	C964.684143,268.985138 956.852173,253.548294 955.405945,234.957199 
	C954.553650,224.001511 956.482666,212.829468 957.276428,201.365967 
M1011.328735,192.743073 
	C999.959412,189.949493 991.626770,194.155426 988.353149,205.132751 
	C984.662354,217.509079 984.738892,230.132874 988.385742,242.527939 
	C990.988770,251.374832 997.205322,255.838013 1005.557617,255.774643 
	C1013.816833,255.711990 1019.414429,251.513580 1022.085144,242.534485 
	C1025.822266,229.970123 1025.646118,217.266434 1022.045349,204.680527 
	C1020.528015,199.376862 1017.541321,195.070358 1011.328735,192.743073 
z"/>
<path fill="#FCFDFD" opacity="1.000000" stroke="none" 
	d="
M456.303925,168.176819 
	C464.026276,168.207687 471.520264,167.253738 478.575195,168.600189 
	C497.652618,172.241180 506.901337,185.746964 510.888763,203.643188 
	C511.716919,207.360199 511.691193,211.264130 512.470032,214.996124 
	C513.867065,221.689880 511.299744,226.853058 506.321289,230.803619 
	C504.293610,232.412643 501.349640,233.653015 498.801422,233.692368 
	C482.339264,233.946640 465.871246,233.822571 449.438660,233.822571 
	C448.280182,244.550186 454.843750,252.969696 465.416473,255.049301 
	C475.182220,256.970184 484.197052,254.520584 493.114960,250.955215 
	C499.219055,248.514801 500.382965,248.930679 504.172882,254.407562 
	C504.550842,254.953827 504.921997,255.506378 505.265289,256.074738 
	C511.129639,265.784698 509.692230,270.695282 499.046448,274.860443 
	C482.053009,281.509125 464.642578,282.399689 447.259521,276.630066 
	C433.312164,272.000793 424.438965,261.849792 420.130432,248.091965 
	C414.868164,231.288849 415.188141,214.231216 420.552856,197.493073 
	C426.036407,180.384079 438.786041,171.576752 456.303925,168.176819 
M481.388214,213.018219 
	C481.187927,209.257446 481.702942,205.280228 480.643555,201.779449 
	C478.180878,193.641449 471.238617,190.217621 462.944611,192.277496 
	C455.213135,194.197678 449.742065,202.244904 449.069397,213.068283 
	C459.529633,213.068283 469.969452,213.068283 481.388214,213.018219 
z"/>
<path fill="#FDFDFD" opacity="1.000000" stroke="none" 
	d="
M1498.716187,272.754822 
	C1480.085083,281.633026 1461.202637,282.782349 1442.085327,276.367218 
	C1427.909058,271.610138 1419.350952,260.973938 1415.144287,247.014801 
	C1410.312134,230.979889 1410.674194,214.690842 1415.488403,198.738312 
	C1421.041992,180.336060 1434.407593,170.605026 1452.972900,168.209930 
	C1459.965576,167.307800 1467.400269,167.354385 1474.299805,168.691040 
	C1492.284424,172.175217 1503.924072,186.340775 1506.955078,206.952972 
	C1507.390625,209.915421 1507.490967,212.930511 1507.994629,215.878860 
	C1509.033691,221.961060 1506.684448,226.800415 1502.120972,230.345840 
	C1499.829956,232.125702 1496.623657,233.608429 1493.797241,233.670334 
	C1478.971680,233.995026 1464.135254,233.822174 1449.302612,233.822174 
	C1447.663940,233.822174 1446.025269,233.822159 1444.380737,233.822159 
	C1444.652100,246.495209 1450.677490,253.326614 1462.532715,255.290787 
	C1472.018921,256.862457 1480.766113,254.322571 1489.165527,250.574600 
	C1493.686035,248.557541 1496.458496,249.787247 1498.855103,253.420273 
	C1500.225342,255.497467 1501.597656,257.611084 1502.636230,259.861908 
	C1505.405029,265.862488 1504.599609,268.457916 1498.716187,272.754822 
M1461.663940,191.909729 
	C1451.443481,192.988342 1445.981934,199.563187 1444.348999,212.850647 
	C1455.450317,212.850647 1466.536621,212.850647 1477.608032,212.850647 
	C1478.369995,200.055099 1472.835205,192.446762 1461.663940,191.909729 
z"/>
<path fill="#FDFDFD" opacity="1.000000" stroke="none" 
	d="
M652.999878,233.822388 
	C643.191101,233.822388 633.882324,233.822388 624.604187,233.822388 
	C623.455688,244.399033 630.110596,252.947510 640.580078,255.043411 
	C650.529724,257.035217 659.828857,254.727249 668.702515,250.697403 
	C673.356873,248.583679 676.095764,249.777817 678.845886,253.512222 
	C687.198303,264.853973 685.633850,270.779785 672.481995,275.600922 
	C658.392639,280.765717 643.883789,281.710358 629.232422,278.578735 
	C610.203613,274.511414 598.723633,262.395233 594.104797,243.844803 
	C590.372559,228.855316 590.782654,213.692932 595.245972,198.929703 
	C600.858826,180.364197 614.273071,170.523773 633.067383,168.183151 
	C639.907715,167.331253 647.161316,167.305405 653.899170,168.602478 
	C672.277649,172.140350 681.629761,184.992233 685.822632,202.273346 
	C686.837769,206.457550 687.053833,210.829071 687.834473,215.078232 
	C689.053589,221.713943 686.509094,226.896027 681.504578,230.842560 
	C679.578979,232.361053 676.886475,233.560257 674.478088,233.689636 
	C667.503113,234.064346 660.495056,233.822327 652.999878,233.822388 
M639.917603,191.996002 
	C630.333191,194.257172 625.008728,201.352875 624.337280,212.811356 
	C635.414185,212.811356 646.485779,212.811356 657.549438,212.811356 
	C657.824219,197.112015 649.898499,190.443390 639.917603,191.996002 
z"/>
<path fill="#FDFDFD" opacity="1.000000" stroke="none" 
	d="
M1308.917725,170.831604 
	C1310.160889,170.585831 1310.966064,170.302307 1311.787231,170.243378 
	C1325.312134,169.272888 1325.186279,168.548096 1328.463379,181.092804 
	C1328.575928,181.523727 1328.978516,181.878891 1329.343872,182.412643 
	C1336.809692,174.588760 1345.222290,168.744980 1356.311157,167.655350 
	C1377.407349,165.582321 1389.985229,175.485703 1390.656372,196.646240 
	C1391.447876,221.602081 1390.905396,246.600052 1390.954712,271.579742 
	C1390.962280,275.419220 1388.779541,277.757355 1385.301514,277.980957 
	C1378.882202,278.393707 1372.405029,278.473297 1365.984985,278.109100 
	C1361.709961,277.866577 1359.882202,275.011292 1359.911133,270.546326 
	C1360.043823,250.063232 1359.974365,229.578812 1359.966675,209.094864 
	C1359.962280,197.228683 1356.546387,192.907440 1347.277100,192.995529 
	C1338.276489,193.081070 1330.690308,200.810440 1330.688110,209.914871 
	C1330.683228,229.566132 1330.693726,249.217392 1330.682251,268.868652 
	C1330.678101,275.838562 1329.126831,278.010376 1322.258301,278.603668 
	C1316.997925,279.058044 1311.629883,278.740143 1306.346680,278.311768 
	C1301.636475,277.929871 1299.602905,275.137024 1299.643555,270.193024 
	C1299.812988,249.543945 1299.904663,228.890076 1299.625000,208.243378 
	C1299.503784,199.280151 1298.666992,190.302429 1297.687012,181.382736 
	C1296.925171,174.448059 1297.042725,173.750946 1303.630005,171.961761 
	C1305.227539,171.527847 1306.867065,171.248688 1308.917725,170.831604 
z"/>
<path fill="#FCFCFD" opacity="1.000000" stroke="none" 
	d="
M1086.073242,278.674988 
	C1085.420166,278.674927 1085.246948,278.705170 1085.088013,278.670502 
	C1081.214844,277.826141 1076.045044,281.068481 1073.755493,275.238342 
	C1071.199097,268.728729 1068.657715,262.604797 1073.905884,255.646805 
	C1088.032227,236.918243 1101.600464,217.768585 1115.378174,198.777390 
	C1116.407959,197.357895 1117.343018,195.869705 1118.708008,193.839645 
	C1116.412354,193.726181 1114.827759,193.584030 1113.242798,193.580078 
	C1104.415283,193.558044 1095.583862,193.720886 1086.761841,193.500534 
	C1082.817993,193.402039 1076.837280,195.452988 1075.656494,190.615784 
	C1074.196045,184.632248 1075.141357,177.979660 1075.682983,171.670746 
	C1075.771973,170.635483 1079.123535,169.124863 1080.976562,169.111206 
	C1104.626465,168.936646 1128.278198,168.985947 1151.929443,169.023651 
	C1153.028809,169.025406 1154.352051,169.137955 1155.188843,169.734848 
	C1159.572632,172.861938 1161.433105,185.963989 1158.178345,190.470505 
	C1143.662598,210.568542 1129.114380,230.643188 1114.579346,250.727295 
	C1114.005615,251.520111 1113.445923,252.323074 1112.524780,253.621689 
	C1114.171387,253.787598 1115.376343,254.011963 1116.581787,254.014557 
	C1128.740479,254.040771 1140.899414,254.002563 1153.057983,254.043243 
	C1158.662964,254.061981 1160.509399,255.816422 1161.027222,261.338531 
	C1162.496582,277.008087 1161.005737,278.674957 1145.521362,278.674957 
	C1125.867554,278.674957 1106.213623,278.674988 1086.073242,278.674988 
z"/>
<path fill="#FDFDFD" opacity="1.000000" stroke="none" 
	d="
M741.224365,169.083206 
	C754.772095,166.571945 767.814575,166.569382 780.593933,170.870544 
	C785.752197,172.606674 791.954285,174.103958 792.861755,180.435532 
	C793.804688,187.014175 789.229614,191.956589 784.890503,196.314224 
	C783.868774,197.340317 781.041321,197.125381 779.225952,196.702530 
	C773.145508,195.286163 767.210876,192.468597 761.104309,192.097183 
	C747.533569,191.271759 739.892578,197.218536 738.063293,210.849960 
	C736.822632,220.095123 737.032532,229.822617 738.420654,239.059845 
	C740.146301,250.543564 748.049805,256.372620 759.762817,255.572128 
	C766.253296,255.128540 772.771240,253.120972 778.962402,250.930054 
	C783.354004,249.375977 786.071106,250.008881 788.796875,253.631683 
	C797.542114,265.254822 795.800171,271.585175 782.041138,276.143707 
	C767.837524,280.849487 753.357117,281.706329 738.736389,278.173737 
	C722.343506,274.212982 712.015625,263.920502 707.709839,247.718124 
	C703.472473,231.772934 703.528259,215.723389 708.029297,199.861038 
	C712.763184,183.178162 723.867737,172.965256 741.224365,169.083206 
z"/>
<path fill="#FEFEFE" opacity="1.000000" stroke="none" 
	d="
M549.656738,277.536865 
	C537.737366,271.724548 534.232117,261.376709 534.070496,249.704315 
	C533.738525,225.734451 533.927551,201.757294 533.912903,177.783142 
	C533.903015,161.633743 534.043579,145.482651 533.833862,129.335968 
	C533.768372,124.293404 536.164917,121.602005 540.644409,121.226448 
	C546.421692,120.742088 552.298584,120.714851 558.076416,121.183380 
	C563.282837,121.605568 564.922424,124.222107 564.924011,130.257553 
	C564.934021,167.717484 564.928955,205.177414 564.930908,242.637344 
	C564.931030,244.302109 564.896790,245.969299 564.970947,247.631226 
	C565.253479,253.964203 568.132812,256.641876 574.251770,255.339050 
	C578.942261,254.340332 580.837341,256.182129 582.308411,260.267731 
	C587.089539,273.546753 583.340576,279.682556 569.124817,279.956116 
	C562.762390,280.078522 556.367676,278.524597 549.656738,277.536865 
z"/>
<path fill="#FDFDFD" opacity="1.000000" stroke="none" 
	d="
M844.880188,248.550278 
	C846.188293,254.786667 848.297913,256.620239 853.895081,255.368927 
	C858.593079,254.318634 860.525940,256.221680 862.040894,260.217041 
	C867.023560,273.357605 863.199219,279.376801 848.991699,280.053680 
	C844.852722,280.250854 840.602905,280.369659 836.548279,279.677917 
	C823.072693,277.378876 814.637207,267.839325 814.098450,253.117203 
	C813.447327,235.324738 813.738098,217.497757 813.624451,199.685699 
	C813.612915,197.881866 813.622925,196.077896 813.622925,194.396683 
	C804.390137,191.927719 803.285461,189.911896 804.054993,177.546310 
	C804.463135,170.987701 805.913879,169.588013 813.606689,168.573715 
	C814.402466,162.746948 815.343567,156.854141 815.974243,150.928299 
	C816.497498,146.012955 819.063293,143.240463 823.891785,142.938354 
	C828.363098,142.658585 832.880432,142.572678 837.345703,142.873276 
	C842.869629,143.245117 844.677917,145.344986 844.758362,150.822372 
	C844.843872,156.646622 844.777649,162.473129 844.777649,167.874191 
	C849.799561,169.027878 856.267029,168.651779 858.952454,171.656219 
	C861.617676,174.637955 860.930969,181.026474 860.890747,185.914124 
	C860.837402,192.393677 860.058228,192.611862 844.850220,193.880157 
	C844.850220,211.919937 844.850220,230.011124 844.880188,248.550278 
z"/>
<path fill="#FDFDFD" opacity="1.000000" stroke="none" 
	d="
M891.538330,278.849548 
	C882.836182,277.069763 882.148438,276.236298 882.143616,267.964264 
	C882.131226,246.488281 882.300110,225.009857 882.012024,203.537567 
	C881.905334,195.587051 880.952576,187.621811 879.940613,179.720291 
	C879.415100,175.617477 880.639221,173.189606 884.582153,172.427155 
	C889.784912,171.421082 895.013550,170.379578 900.280518,169.917450 
	C906.743347,169.350418 908.060730,170.504181 909.905823,176.667221 
	C910.427551,178.409927 910.833252,180.187363 911.503418,182.759720 
	C913.035339,180.650024 914.234863,178.975967 915.457092,177.318649 
	C920.952820,169.866821 928.141846,166.252487 937.501526,167.738083 
	C942.807373,168.580231 946.097961,171.714752 945.949890,177.138321 
	C945.816223,182.033707 944.603455,186.936661 943.517700,191.757690 
	C942.600159,195.831512 939.783203,196.764145 935.886230,195.631699 
	C928.145386,193.382187 921.259399,194.917389 916.151794,201.357285 
	C914.547485,203.380005 913.287292,206.314056 913.258484,208.846786 
	C913.027344,229.154907 913.138550,249.466797 913.123047,269.777527 
	C913.118469,275.796936 911.900391,277.588409 905.916870,278.403107 
	C901.334534,279.026978 896.630554,278.758240 891.538330,278.849548 
z"/>
<path fill="#141940" opacity="1.000000" stroke="none" 
	d="
M257.486542,318.437927 
	C269.474426,306.532471 280.447601,293.814606 287.957764,278.530060 
	C305.801483,242.214706 306.475311,206.130966 283.736633,171.774124 
	C259.507233,135.164841 209.432404,129.636780 177.452408,159.693527 
	C162.679779,173.577759 155.791779,191.015976 159.887161,211.719894 
	C159.976944,212.173813 159.823685,212.675812 159.721176,213.908173 
	C151.863083,206.101501 146.709793,197.371735 144.059814,187.245697 
	C135.309647,153.809860 151.987762,122.159180 185.577255,109.060944 
	C217.499695,96.612762 248.153244,101.151405 277.173370,117.921227 
	C314.732758,139.625641 331.931488,173.168106 330.781219,215.938065 
	C330.175262,238.467926 320.345398,258.018097 306.788849,275.705139 
	C293.467163,293.085754 277.172302,307.190430 258.319702,318.895721 
	C257.825684,318.792419 257.486542,318.437927 257.486542,318.437927 
z"/>
<path fill="#141940" opacity="1.000000" stroke="none" 
	d="
M210.009125,236.007614 
	C200.442978,247.518890 187.714874,253.181839 173.268127,254.945358 
	C134.345322,259.696716 108.058899,231.975174 100.109970,200.148224 
	C90.858170,163.104660 100.632957,130.100754 124.362015,101.240875 
	C151.894073,67.755699 208.028503,49.432938 258.325043,80.807213 
	C279.145325,93.794632 296.050385,110.779419 310.381622,130.503189 
	C311.177032,131.597946 311.617493,132.950607 311.858002,134.424484 
	C297.335236,120.157990 281.109985,108.594681 262.048187,101.694946 
	C227.040787,89.023438 193.405243,91.497345 163.022064,114.131973 
	C125.913116,141.777130 125.450081,197.901764 161.568451,225.111755 
	C175.744858,235.791626 191.582367,239.790466 209.565796,235.914124 
	C209.996429,235.996445 210.009125,236.007614 210.009125,236.007614 
z"/>
<path fill="#141940" opacity="1.000000" stroke="none" 
	d="
M292.732819,202.421234 
	C301.929260,248.431824 287.785217,286.653534 251.800720,314.559906 
	C214.033722,343.848602 165.628525,345.116974 123.208054,312.793732 
	C105.242355,299.104340 90.760696,282.293579 79.003601,262.800598 
	C80.259262,263.819244 81.617844,264.734955 82.755188,265.871979 
	C100.894806,284.006073 121.606812,298.057159 147.027451,303.319580 
	C179.021271,309.942719 208.692139,304.701263 234.127762,282.849701 
	C271.392548,250.835785 262.396606,187.928268 217.842850,168.446060 
	C207.509018,163.927338 196.760788,162.602051 185.045944,164.186752 
	C186.862320,162.535339 188.555847,160.719482 190.513535,159.257309 
	C218.456360,138.386993 257.790985,144.461334 278.849548,172.850830 
	C285.382904,181.658600 289.907532,191.412308 292.732819,202.421234 
z"/>
<path fill="#141940" opacity="1.000000" stroke="none" 
	d="
M127.621864,87.620422 
	C119.645775,98.451469 110.384392,108.572182 103.932838,120.245781 
	C83.994728,156.322220 82.746284,193.185776 104.639099,228.908936 
	C127.995789,267.020752 177.635117,274.697235 211.070282,245.692123 
	C227.284698,231.626068 234.833664,213.513519 231.106934,191.633179 
	C230.974884,190.857910 231.090149,190.040497 231.090149,189.242737 
	C231.636002,188.756973 232.181870,188.271210 232.727722,187.785446 
	C234.088440,189.766541 235.349289,191.825546 236.824814,193.717072 
	C260.435791,223.984726 252.482773,267.134491 219.029724,287.354675 
	C188.859833,305.590424 157.344910,305.196136 125.610649,291.770844 
	C88.334198,276.000916 66.804161,247.462311 60.367432,207.836334 
	C56.196102,182.156647 63.484123,158.689728 77.231384,137.056091 
	C90.010262,116.946365 106.845528,100.747627 126.658493,87.087784 
	C127.330124,87.345985 127.475998,87.483208 127.621864,87.620422 
z"/>
<path fill="#141940" opacity="1.000000" stroke="none" 
	d="
M129.186935,86.173569 
	C128.824585,86.576820 128.462234,86.980072 127.860870,87.501877 
	C127.475998,87.483208 127.330124,87.345985 126.984100,86.983917 
	C127.208473,86.412773 127.632988,86.066498 128.473236,85.800735 
	C128.888947,85.881256 129.186935,86.173569 129.186935,86.173569 
z"/>
<path fill="#141940" opacity="1.000000" stroke="none" 
	d="
M257.983948,318.979828 
	C257.653076,319.334076 257.163910,319.500916 256.674744,319.667725 
	C256.803284,319.343170 256.931854,319.018646 257.273499,318.566010 
	C257.486542,318.437927 257.825684,318.792419 257.983948,318.979828 
z"/>
<path fill="#141940" opacity="1.000000" stroke="none" 
	d="
M209.988647,235.988434 
	C210.087219,235.777908 210.193573,235.575378 210.299896,235.372864 
	C210.328491,235.552582 210.357101,235.732330 210.197418,235.959839 
	C210.009125,236.007614 209.996429,235.996445 209.988647,235.988434 
z"/>
<path fill="#141940" opacity="1.000000" stroke="none" 
	d="
M230.627228,187.499146 
	C230.717712,187.637390 230.373444,187.710495 230.373444,187.710495 
	C230.373444,187.710495 230.536728,187.360901 230.627228,187.499146 
z"/>
<path fill="#141940" opacity="1.000000" stroke="none" 
	d="
M183.629974,165.485321 
	C183.660767,165.522003 183.599197,165.448654 183.629974,165.485321 
z"/>
<path fill="#141940" opacity="1.000000" stroke="none" 
	d="
M128.743896,85.731186 
	C128.919540,85.701500 129.240234,85.821899 129.373932,86.057930 
	C129.186935,86.173569 128.888947,85.881256 128.743896,85.731186 
z"/>
<path fill="#151B41" opacity="1.000000" stroke="none" 
	d="
M1238.238525,195.669922 
	C1240.328491,199.049240 1242.879028,201.962860 1243.836670,205.329529 
	C1247.316772,217.563599 1247.283936,230.002838 1243.881836,242.254501 
	C1241.367798,251.308105 1235.390259,255.779388 1227.006592,255.763687 
	C1218.605469,255.747940 1212.612915,251.313889 1210.035400,242.336761 
	C1206.472534,229.927292 1206.340210,217.291733 1210.138184,204.955994 
	C1214.139282,191.961136 1226.632568,187.913742 1238.238525,195.669922 
z"/>
<path fill="#151B41" opacity="1.000000" stroke="none" 
	d="
M1011.715820,192.858307 
	C1017.541321,195.070358 1020.528015,199.376862 1022.045349,204.680527 
	C1025.646118,217.266434 1025.822266,229.970123 1022.085144,242.534485 
	C1019.414429,251.513580 1013.816833,255.711990 1005.557617,255.774643 
	C997.205322,255.838013 990.988770,251.374832 988.385742,242.527939 
	C984.738892,230.132874 984.662354,217.509079 988.353149,205.132751 
	C991.626770,194.155426 999.959412,189.949493 1011.715820,192.858307 
z"/>
<path fill="#151B41" opacity="1.000000" stroke="none" 
	d="
M480.898743,213.043243 
	C469.969452,213.068283 459.529633,213.068283 449.069397,213.068283 
	C449.742065,202.244904 455.213135,194.197678 462.944611,192.277496 
	C471.238617,190.217621 478.180878,193.641449 480.643555,201.779449 
	C481.702942,205.280228 481.187927,209.257446 480.898743,213.043243 
z"/>
<path fill="#161C41" opacity="1.000000" stroke="none" 
	d="
M1462.095337,191.892776 
	C1472.835205,192.446762 1478.369995,200.055099 1477.608032,212.850647 
	C1466.536621,212.850647 1455.450317,212.850647 1444.348999,212.850647 
	C1445.981934,199.563187 1451.443481,192.988342 1462.095337,191.892776 
z"/>
<path fill="#161C42" opacity="1.000000" stroke="none" 
	d="
M640.346741,191.968475 
	C649.898499,190.443390 657.824219,197.112015 657.549438,212.811356 
	C646.485779,212.811356 635.414185,212.811356 624.337280,212.811356 
	C625.008728,201.352875 630.333191,194.257172 640.346741,191.968475 
z"/>
</svg>